<?xml version="1.0" encoding="UTF-8"?>
<svg version="1.1" xmlns="http://www.w3.org/2000/svg" width="370" height="149">
<path d="M0 0 C0 0.66 0 1.32 0 2 C1.32 2 2.64 2 4 2 C4 2.66 4 3.32 4 4 C4.61875 4.144375 5.2375 4.28875 5.875 4.4375 C8 5 8 5 10 6 C10 6.66 10 7.32 10 8 C10.73605469 8.25136719 11.47210938 8.50273437 12.23046875 8.76171875 C23.58903224 13.84023021 30.42947729 27.87054434 35.2109375 38.70703125 C40.3169446 53.54478455 40.69472283 73.61236945 34 88 C29.17481882 97.3058706 23.38215073 106.49660719 15 113 C14.34 113 13.68 113 13 113 C13 113.66 13 114.32 13 115 C10.734375 116.7265625 10.734375 116.7265625 7.75 118.625 C6.77546875 119.25664062 5.8009375 119.88828125 4.796875 120.5390625 C2 122 2 122 -2 122 C-2 122.66 -2 123.32 -2 124 C-20.8552557 130.73401989 -40.45357819 131.02372776 -58.8359375 122.71875 C-65.88703346 119.16357557 -71.42327282 114.54879699 -77 109 C-77.69996094 108.33484375 -78.39992188 107.6696875 -79.12109375 106.984375 C-85.59291363 100.37378315 -89.37277945 92.40361557 -93 84 C-93.57814453 82.66195312 -93.57814453 82.66195312 -94.16796875 81.296875 C-99.69043246 65.222098 -96.44615821 46.90973059 -89.578125 31.890625 C-84.82657182 22.64297849 -78.52858009 14.09744461 -70 8 C-69.34 8 -68.68 8 -68 8 C-68 7.34 -68 6.68 -68 6 C-65 4 -65 4 -62 4 C-62 3.34 -62 2.68 -62 2 C-41.35399255 -7.19528063 -21.20827823 -8.75532127 0 0 Z M-50 13 C-50.76183594 13.350625 -51.52367188 13.70125 -52.30859375 14.0625 C-64.90508021 20.34982773 -74.44411245 31.40368109 -79.22265625 44.5703125 C-83.88949425 59.15711269 -82.34490682 72.0714444 -76.0625 86 C-69.11465886 99.15438542 -58.31109005 108.05854863 -44.10424805 112.60693359 C-30.84586404 116.27939008 -16.28355499 114.82442545 -4.12109375 108.50390625 C-1.67948669 107.07874696 0.67425532 105.60617727 3 104 C3.75152344 103.48566406 4.50304687 102.97132812 5.27734375 102.44140625 C5.84582031 101.96574219 6.41429688 101.49007812 7 101 C7 100.34 7 99.68 7 99 C7.66 99 8.32 99 9 99 C9 98.34 9 97.68 9 97 C9.66 97 10.32 97 11 97 C21.31305139 83.41014164 25.46136091 69.54289805 23.7578125 52.58984375 C21.25271049 38.50503554 11.79202232 26.24017469 0.6484375 17.75390625 C-14.05759793 8.01495359 -33.89812971 4.82809922 -50 13 Z " fill="#8CC9C4" transform="translate(102,16)"/>
<path d="M0 0 C0.99 0.33 1.98 0.66 3 1 C2.01 2.65 1.02 4.3 0 6 C1.0725 5.649375 2.145 5.29875 3.25 4.9375 C7.92307692 3.76923077 7.92307692 3.76923077 11 5 C11 5.66 11 6.32 11 7 C10.34 7.33 9.68 7.66 9 8 C8.67 8.99 8.34 9.98 8 11 C9.98 10.67 11.96 10.34 14 10 C11.22382405 12.17901225 8.41414892 13.88930775 5.3125 15.5625 C-3.57577895 20.85876062 -9.60842658 28.74818721 -14 38 C-14.556875 39.155 -15.11375 40.31 -15.6875 41.5 C-20.69344861 54.8491963 -19.82179658 67.28762807 -14.62890625 80.484375 C-7.76441372 95.5632123 2.93747486 103.92277764 18.140625 109.83203125 C24.76433366 111.83354321 32.12196515 111.65968057 39 112 C39 112.33 39 112.66 39 113 C37.02 113 35.04 113 33 113 C33 117.62 33 122.24 33 127 C13.69720926 126.28508182 -1.07950943 120.85077192 -15 107 C-15.69996094 106.33484375 -16.39992188 105.6696875 -17.12109375 104.984375 C-23.59291363 98.37378315 -27.37277945 90.40361557 -31 82 C-31.57814453 80.66195312 -31.57814453 80.66195312 -32.16796875 79.296875 C-37.69043246 63.222098 -34.44615821 44.90973059 -27.578125 29.890625 C-22.82657182 20.64297849 -16.52858009 12.09744461 -8 6 C-7.34 6 -6.68 6 -6 6 C-6 5.34 -6 4.68 -6 4 C-3 2 -3 2 0 2 C0 1.34 0 0.68 0 0 Z " fill="#504C90" transform="translate(40,18)"/>
<path d="M0 0 C2.76216919 2.1430623 5.27373789 4.4010468 7.7734375 6.84375 C9.9124691 9.02426282 9.9124691 9.02426282 12.2734375 10.61328125 C12.84320313 11.07089844 13.41296875 11.52851562 14 12 C14.25 14.6875 14.25 14.6875 14 17 C13.34 17 12.68 17 12 17 C11.88785156 17.57234375 11.77570313 18.1446875 11.66015625 18.734375 C10.92776966 21.24789112 9.86145147 23.05930543 8.4375 25.25 C7.98246094 25.95640625 7.52742188 26.6628125 7.05859375 27.390625 C6.53458984 28.18726563 6.53458984 28.18726563 6 29 C3.13275314 28.42655063 2.1385485 28.1385485 0 26 C-0.33 32.6 -0.66 39.2 -1 46 C0.65 46.33 2.3 46.66 4 47 C4.9075 47.495 5.815 47.99 6.75 48.5 C10.31718425 50.14639273 13.1730284 50.51235917 17.046875 50.7890625 C19 51 19 51 21 52 C20.67 53.32 20.34 54.64 20 56 C14.90462154 56.32351609 11.2475403 56.38193649 6.625 54.125 C-2.33178644 49.8319196 -9.13661265 49.61423092 -18.57470703 52.46362305 C-24.84752019 54.34868795 -29.90755702 54.46678385 -36.3125 53.5 C-44.57604033 52.37951995 -51.957061 52.50454196 -59.84375 55.34375 C-62 56 -62 56 -66 56 C-66 54.68 -66 53.36 -66 52 C-64.58521865 51.35004703 -63.16808513 50.70521278 -61.75 50.0625 C-60.56664062 49.52302734 -60.56664062 49.52302734 -59.359375 48.97265625 C-53.8298337 46.69309369 -50.38712276 47 -44 47 C-44.33 40.07 -44.66 33.14 -45 26 C-45.99 26.66 -46.98 27.32 -48 28 C-50.6875 27.625 -50.6875 27.625 -53 27 C-53.33 25.68 -53.66 24.36 -54 23 C-54.66 23 -55.32 23 -56 23 C-56.66 21.02 -57.32 19.04 -58 17 C-58.66 17 -59.32 17 -60 17 C-60.375 14.8125 -60.375 14.8125 -60 12 C-58.17130326 9.91167347 -56.30947441 8.61663209 -54 7 C-53.34 7 -52.68 7 -52 7 C-52 6.34 -52 5.68 -52 5 C-50.390625 3.52734375 -50.390625 3.52734375 -48.25 1.9375 C-47.55390625 1.41027344 -46.8578125 0.88304687 -46.140625 0.33984375 C-42.83375607 -1.72996655 -39.85300019 -2.14987304 -36 -2.1875 C-35.01 -2.20876953 -35.01 -2.20876953 -34 -2.23046875 C-32 -2 -32 -2 -30.046875 -1.0078125 C-26.26110636 0.85617283 -22.11848266 0.44928902 -18 0 C-15.92506619 -0.74805343 -15.92506619 -0.74805343 -14 -1.6875 C-8.88135009 -3.81513159 -4.77973533 -2.50504201 0 0 Z M-46 6 C-46 6.66 -46 7.32 -46 8 C-46.99 8.33 -47.98 8.66 -49 9 C-49 9.66 -49 10.32 -49 11 C-49.804375 11.28875 -50.60875 11.5775 -51.4375 11.875 C-54.1326468 12.73262568 -54.1326468 12.73262568 -55 15 C-54.00632202 17.02914845 -54.00632202 17.02914845 -52.5625 19.125 C-52.08941406 19.84945312 -51.61632812 20.57390625 -51.12890625 21.3203125 C-50.75636719 21.87460937 -50.38382813 22.42890625 -50 23 C-49.01 22.67 -48.02 22.34 -47 22 C-47 21.34 -47 20.68 -47 20 C-43.535 19.505 -43.535 19.505 -40 19 C-40 28.57 -40 38.14 -40 48 C-37.03 48.33 -34.06 48.66 -31 49 C-32.485 48.505 -32.485 48.505 -34 48 C-34 46.68 -34 45.36 -34 44 C-30.04 44 -26.08 44 -22 44 C-22.33 42.35 -22.66 40.7 -23 39 C-21.02 38.505 -21.02 38.505 -19 38 C-18.34 38.99 -17.68 39.98 -17 41 C-17.99 41.33 -18.98 41.66 -20 42 C-19.505 44.475 -19.505 44.475 -19 47 C-14.71 46.34 -10.42 45.68 -6 45 C-6 36.09 -6 27.18 -6 18 C-4.35 18 -2.7 18 -1 18 C-1 18.66 -1 19.32 -1 20 C1.46326712 21.6446674 1.46326712 21.6446674 4 23 C4.84198307 21.90241493 5.67330671 20.79664683 6.5 19.6875 C6.9640625 19.07261719 7.428125 18.45773438 7.90625 17.82421875 C9.25711283 15.92566995 9.25711283 15.92566995 9 13 C6.04920467 10.77051019 3.51420376 9.17140125 0 8 C0 7.34 0 6.68 0 6 C-3.44450737 3.70366176 -5.93812283 3.45983515 -10 3 C-10.433125 3.928125 -10.86625 4.85625 -11.3125 5.8125 C-12.77746889 8.57966345 -13.64117416 10.07408807 -16 12 C-20.46012584 13.36569745 -24.3327985 13.17500367 -28.8125 12 C-32.88053209 9.44750928 -33.97434675 7.29438489 -36 3 C-39.86695678 3 -42.5088452 4.41909971 -46 6 Z M-30 5 C-27.60476088 9.0679682 -27.60476088 9.0679682 -25.02734375 9.49609375 C-23.01222719 9.43959515 -21.00357861 9.22261985 -19 9 C-18.34 8.01 -17.68 7.02 -17 6 C-21.29 5.67 -25.58 5.34 -30 5 Z M-26 49 C-22.535 48.505 -22.535 48.505 -19 48 C-22.48581856 46.7979936 -22.67992344 46.78661563 -26 49 Z " fill="#98B8B6" transform="translate(96,41)"/>
<path d="M0 0 C0.66 0.99 1.32 1.98 2 3 C1.401875 3.66 0.80375 4.32 0.1875 5 C-2.33947371 8.46556394 -4.11087337 11.78325092 -5 16 C-4.36088728 18.45973985 -4.36088728 18.45973985 -3 20 C-1.35 19.67 0.3 19.34 2 19 C2 17.02 2 15.04 2 13 C5.75 11.875 5.75 11.875 8 13 C8.33 12.01 8.66 11.02 9 10 C9.66 10.66 10.32 11.32 11 12 C2.81242627 24.36846245 2.81242627 24.36846245 -3 29 C-3.66 29 -4.32 29 -5 29 C-5 29.66 -5 30.32 -5 31 C-7.265625 32.7265625 -7.265625 32.7265625 -10.25 34.625 C-11.22453125 35.25664062 -12.1990625 35.88828125 -13.203125 36.5390625 C-16 38 -16 38 -20 38 C-20 38.66 -20 39.32 -20 40 C-28.60272097 43.02714404 -36.82265647 45.07214893 -46 45 C-47 44 -47 44 -47.09765625 41.05859375 C-47.08605469 39.86363281 -47.07445313 38.66867188 -47.0625 37.4375 C-47.05347656 36.23996094 -47.04445313 35.04242188 -47.03515625 33.80859375 C-47.02355469 32.88175781 -47.01195313 31.95492187 -47 31 C-45.91203125 30.78085938 -44.8240625 30.56171875 -43.703125 30.3359375 C-33.39534956 28.15300377 -23.66363176 25.58328582 -15.296875 18.8125 C-13 17 -13 17 -11 17 C-11 16.34 -11 15.68 -11 15 C-10.34 15 -9.68 15 -9 15 C-9 14.34 -9 13.68 -9 13 C-8.34 13 -7.68 13 -7 13 C-6.72414062 12.43796875 -6.44828125 11.8759375 -6.1640625 11.296875 C-4.95631972 8.91381206 -3.67823191 6.5820992 -2.375 4.25 C-1.70597656 3.05117187 -1.70597656 3.05117187 -1.0234375 1.828125 C-0.68570313 1.22484375 -0.34796875 0.6215625 0 0 Z " fill="#6A8F9A" transform="translate(120,100)"/>
<path d="M0 0 C1.85625 0.0309375 1.85625 0.0309375 3.75 0.0625 C3.75 0.3925 3.75 0.7225 3.75 1.0625 C1.77 1.3925 -0.21 1.7225 -2.25 2.0625 C-0.93 3.0525 0.39 4.0425 1.75 5.0625 C1.09 5.7225 0.43 6.3825 -0.25 7.0625 C-0.25 6.4025 -0.25 5.7425 -0.25 5.0625 C-5.2 6.5475 -5.2 6.5475 -10.25 8.0625 C-10.25 8.7225 -10.25 9.3825 -10.25 10.0625 C-12 11.5703125 -12 11.5703125 -14.25 13.1875 C-14.9925 13.72632813 -15.735 14.26515625 -16.5 14.8203125 C-17.36625 15.43519531 -17.36625 15.43519531 -18.25 16.0625 C-17.651875 17.196875 -17.05375 18.33125 -16.4375 19.5 C-16.10105469 20.13808594 -15.76460937 20.77617188 -15.41796875 21.43359375 C-14.25980201 23.38517987 -14.25980201 23.38517987 -11.25 24.0625 C-11.25 23.4025 -11.25 22.7425 -11.25 22.0625 C-8.25 20.0625 -8.25 20.0625 -5.5625 20.4375 C-4.799375 20.64375 -4.03625 20.85 -3.25 21.0625 C-3.22072368 24.58331558 -3.20310881 28.10409939 -3.1875 31.625 C-3.17912109 32.61564453 -3.17074219 33.60628906 -3.16210938 34.62695312 C-3.14463086 39.88798699 -3.32691602 44.88014665 -4.25 50.0625 C-2.27 50.0625 -0.29 50.0625 1.75 50.0625 C1.75 48.7425 1.75 47.4225 1.75 46.0625 C5.71 46.0625 9.67 46.0625 13.75 46.0625 C13.42 44.4125 13.09 42.7625 12.75 41.0625 C14.07 40.4025 15.39 39.7425 16.75 39.0625 C17.41 40.3825 18.07 41.7025 18.75 43.0625 C18.09 43.7225 17.43 44.3825 16.75 45.0625 C16.75 46.3825 16.75 47.7025 16.75 49.0625 C18.296875 48.5675 18.296875 48.5675 19.875 48.0625 C23.23426709 47.0909808 26.24106202 46.89133229 29.75 47.0625 C29.75 47.3925 29.75 47.7225 29.75 48.0625 C28.1 48.0625 26.45 48.0625 24.75 48.0625 C24.75 49.0525 24.75 50.0425 24.75 51.0625 C25.74 51.5575 25.74 51.5575 26.75 52.0625 C17.37420972 54.82953165 9.25874553 57.04495216 -0.5625 55.5625 C-8.82604033 54.44201995 -16.207061 54.56704196 -24.09375 57.40625 C-26.25 58.0625 -26.25 58.0625 -30.25 58.0625 C-30.25 56.7425 -30.25 55.4225 -30.25 54.0625 C-28.83521865 53.41254703 -27.41808513 52.76771278 -26 52.125 C-24.81664062 51.58552734 -24.81664062 51.58552734 -23.609375 51.03515625 C-18.0798337 48.75559369 -14.63712276 49.0625 -8.25 49.0625 C-8.58 42.1325 -8.91 35.2025 -9.25 28.0625 C-10.24 28.7225 -11.23 29.3825 -12.25 30.0625 C-14.9375 29.6875 -14.9375 29.6875 -17.25 29.0625 C-17.58 27.7425 -17.91 26.4225 -18.25 25.0625 C-18.91 25.0625 -19.57 25.0625 -20.25 25.0625 C-20.91 23.0825 -21.57 21.1025 -22.25 19.0625 C-22.91 19.0625 -23.57 19.0625 -24.25 19.0625 C-24.625 16.875 -24.625 16.875 -24.25 14.0625 C-22.42130326 11.97417347 -20.55947441 10.67913209 -18.25 9.0625 C-17.59 9.0625 -16.93 9.0625 -16.25 9.0625 C-16.25 8.4025 -16.25 7.7425 -16.25 7.0625 C-14.640625 5.58984375 -14.640625 5.58984375 -12.5 4 C-11.80390625 3.47277344 -11.1078125 2.94554687 -10.390625 2.40234375 C-6.95315693 0.25078983 -3.99806104 -0.06663435 0 0 Z M9.75 51.0625 C13.215 50.5675 13.215 50.5675 16.75 50.0625 C13.26418144 48.8604936 13.07007656 48.84911563 9.75 51.0625 Z " fill="#647A81" transform="translate(60.25,38.9375)"/>
<path d="M0 0 C2.31 0 4.62 0 7 0 C7.33 1.98 7.66 3.96 8 6 C8.86625 5.01 9.7325 4.02 10.625 3 C13.12345413 0.46585366 13.66854671 0.03682814 17.375 -0.375 C18.24125 -0.25125 19.1075 -0.1275 20 0 C20 3.58912412 19.33563446 4.10857029 17 6.6875 C16.443125 7.31011719 15.88625 7.93273437 15.3125 8.57421875 C14.879375 9.04472656 14.44625 9.51523438 14 10 C16.475 13.465 16.475 13.465 19 17 C21.4056808 13.05924297 21.4056808 13.05924297 21.6875 8.625 C21.460625 8.08875 21.23375 7.5525 21 7 C23.97017828 4.81604538 25.38396386 3.95071711 29.125 4.25 C31.10219685 4.76579048 33.0614922 5.35383073 35 6 C36.72490809 9.63138546 37.09767975 12.76484607 37.05078125 16.71875 C37.04344971 17.52248047 37.03611816 18.32621094 37.02856445 19.15429688 C37.01913818 19.76337891 37.00971191 20.37246094 37 21 C33.10456123 21.14553599 29.20982349 21.23415059 25.3125 21.3125 C24.20970703 21.35439453 23.10691406 21.39628906 21.97070312 21.43945312 C13.93144276 21.5608921 13.93144276 21.5608921 11.11474609 19.86474609 C9.73046875 18.48046875 9.73046875 18.48046875 8 16 C7.67 17.65 7.34 19.3 7 21 C4.69 21 2.38 21 0 21 C0 14.07 0 7.14 0 0 Z M25 10 C25 10.33 25 10.66 25 11 C26.65 11 28.3 11 30 11 C30 10.67 30 10.34 30 10 C28.35 10 26.7 10 25 10 Z M27 15 C27 15.66 27 16.32 27 17 C27.99 17 28.98 17 30 17 C30 16.34 30 15.68 30 15 C29.01 15 28.02 15 27 15 Z " fill="#71AFA9" transform="translate(292,61)"/>
<path d="M0 0 C-1.32 0.33 -2.64 0.66 -4 1 C-4 5.29 -4 9.58 -4 14 C-1.958125 13.938125 0.08375 13.87625 2.1875 13.8125 C7.15084383 13.66209564 9.93272755 14.08167457 14 17 C11.26682025 18.36658987 9.85028073 17.35847492 7.06005859 16.50244141 C3.34204511 15.59563034 -0.37832825 15.6629445 -4.1875 15.6875 C-5.01958984 15.68878906 -5.85167969 15.69007812 -6.70898438 15.69140625 C-12.65423236 15.78350924 -18.04320054 16.59280017 -23.75 18.34375 C-26 19 -26 19 -29 19 C-28.67 17.68 -28.34 16.36 -28 15 C-27.34 15 -26.68 15 -26 15 C-26 14.34 -26 13.68 -26 13 C-30.33168317 12.73747375 -33.8803623 13.70756464 -38 15 C-37.35330586 13.65686601 -36.68096422 12.32608822 -36 11 C-35.57976563 10.17242187 -35.15953125 9.34484375 -34.7265625 8.4921875 C-31.14080093 3.31635971 -24.33980096 2.45510414 -18.4453125 1.30859375 C-12.25985681 0.3574968 -6.25463759 -0.2501855 0 0 Z " fill="#7987BF" transform="translate(77,10)"/>
<path d="M0 0 C1.98 0 3.96 0 6 0 C7 1 7 1 7.09765625 4.37890625 C7.09098369 5.77347077 7.07902532 7.16801743 7.0625 8.5625 C7.05798828 9.27341797 7.05347656 9.98433594 7.04882812 10.71679688 C7.03700864 12.47790013 7.01907263 14.23896036 7 16 C11.455 15.505 11.455 15.505 16 15 C17.68630119 11.48966871 17.68630119 11.48966871 17.625 7.6875 C17.41875 7.130625 17.2125 6.57375 17 6 C21.32562039 3.7716501 24.30457378 3.8048006 29 5 C31.19921875 6.6640625 31.19921875 6.6640625 33 9 C33.390625 12.015625 33.390625 12.015625 33.25 15.25 C33.21390625 16.32765625 33.1778125 17.4053125 33.140625 18.515625 C33.09421875 19.33546875 33.0478125 20.1553125 33 21 C27.33333333 21 21.66666667 21 16 21 C15.195625 21.2475 15.195625 21.2475 14.375 21.5 C9.43664998 22.53965263 4.87146377 22.21786594 0 21 C0 14.07 0 7.14 0 0 Z M21 10 C21 10.33 21 10.66 21 11 C22.65 11 24.3 11 26 11 C26 10.67 26 10.34 26 10 C24.35 10 22.7 10 21 10 Z M23 15 C23 15.66 23 16.32 23 17 C23.99 17 24.98 17 26 17 C26 16.34 26 15.68 26 15 C25.01 15 24.02 15 23 15 Z " fill="#3E4490" transform="translate(159,61)"/>
<path d="M0 0 C2.0625 3.0625 2.0625 3.0625 3 6 C4.65 3.69 6.3 1.38 8 -1 C10.475 -0.505 10.475 -0.505 13 0 C7.78640777 17.21359223 7.78640777 17.21359223 3 22 C1.48071962 22.07179964 -0.04167482 22.08392007 -1.5625 22.0625 C-2.38878906 22.05347656 -3.21507812 22.04445313 -4.06640625 22.03515625 C-5.02353516 22.01775391 -5.02353516 22.01775391 -6 22 C-5.67 20.02 -5.34 18.04 -5 16 C-3.68 15.67 -2.36 15.34 -1 15 C-2.32 12.03 -3.64 9.06 -5 6 C-6.65 6.33 -8.3 6.66 -10 7 C-10.33 9.97 -10.66 12.94 -11 16 C-13.31 16 -15.62 16 -18 16 C-18.02685095 13.52076199 -18.04676547 11.0418116 -18.0625 8.5625 C-18.07506836 7.50192383 -18.07506836 7.50192383 -18.08789062 6.41992188 C-18.09653588 4.61306441 -18.05220011 2.80612397 -18 1 C-14.57053299 -2.42946701 -4.29971476 -1.46819529 0 0 Z " fill="#7AC5C2" transform="translate(271,66)"/>
<path d="M0 0 C0 0.66 0 1.32 0 2 C1.32 2 2.64 2 4 2 C3.3125 4.875 3.3125 4.875 2 8 C-0.4375 9.4375 -0.4375 9.4375 -3 10 C-3.99 9.67 -4.98 9.34 -6 9 C-6 9.99 -6 10.98 -6 12 C-9.09004896 12.26486134 -10.6100336 12.2545614 -13.25 10.53125 C-16.57117264 8.68196069 -19.03494379 8.50328567 -22.8125 8.3125 C-24.854375 8.209375 -26.89625 8.10625 -29 8 C-29 3.71 -29 -0.58 -29 -5 C-19.35381544 -7.41154614 -8.92465731 -3.75199879 0 0 Z " fill="#94D3CB" transform="translate(102,16)"/>
<path d="M0 0 C0.9075 0.165 1.815 0.33 2.75 0.5 C5.97660886 0.99640136 7.8620042 0.64369145 11 0 C12.2065625 0.2475 12.2065625 0.2475 13.4375 0.5 C16.08137117 1.17799349 16.08137117 1.17799349 19.0625 0.4375 C22 0 22 0 24.3125 0.6875 C26.49349164 2.38382683 26.52781302 3.30112737 27 6 C27.06688591 7.91561254 27.08531719 9.83335592 27.0625 11.75 C27.05347656 12.73484375 27.04445313 13.7196875 27.03515625 14.734375 C27.02355469 15.48203125 27.01195312 16.2296875 27 17 C25.02 17 23.04 17 21 17 C20.92652344 16.04287109 20.92652344 16.04287109 20.8515625 15.06640625 C20.77679688 14.24011719 20.70203125 13.41382812 20.625 12.5625 C20.55539062 11.73878906 20.48578125 10.91507813 20.4140625 10.06640625 C20.27742188 9.38449219 20.14078125 8.70257813 20 8 C19.34 7.67 18.68 7.34 18 7 C17.34 10.3 16.68 13.6 16 17 C14.02 17 12.04 17 10 17 C9.67 13.7 9.34 10.4 9 7 C8.01 7.33 7.02 7.66 6 8 C5.67 10.97 5.34 13.94 5 17 C3.02 17 1.04 17 -1 17 C-1.02684679 14.35409986 -1.04676357 11.70846904 -1.0625 9.0625 C-1.07087891 8.30775391 -1.07925781 7.55300781 -1.08789062 6.77539062 C-1.09652441 4.85005687 -1.05224333 2.92464419 -1 1 C-0.67 0.67 -0.34 0.34 0 0 Z " fill="#96D0C8" transform="translate(332,65)"/>
<path d="M0 0 C1.85625 0.0309375 1.85625 0.0309375 3.75 0.0625 C3.75 0.3925 3.75 0.7225 3.75 1.0625 C1.77 1.3925 -0.21 1.7225 -2.25 2.0625 C-0.93 3.0525 0.39 4.0425 1.75 5.0625 C1.09 5.7225 0.43 6.3825 -0.25 7.0625 C-0.25 6.4025 -0.25 5.7425 -0.25 5.0625 C-5.2 6.5475 -5.2 6.5475 -10.25 8.0625 C-10.25 8.7225 -10.25 9.3825 -10.25 10.0625 C-12 11.5703125 -12 11.5703125 -14.25 13.1875 C-14.9925 13.72632813 -15.735 14.26515625 -16.5 14.8203125 C-17.0775 15.23023438 -17.655 15.64015625 -18.25 16.0625 C-17.651875 17.196875 -17.05375 18.33125 -16.4375 19.5 C-16.10105469 20.13808594 -15.76460937 20.77617188 -15.41796875 21.43359375 C-14.25980201 23.38517987 -14.25980201 23.38517987 -11.25 24.0625 C-11.25 23.4025 -11.25 22.7425 -11.25 22.0625 C-8.25 20.0625 -8.25 20.0625 -5.5625 20.4375 C-4.799375 20.64375 -4.03625 20.85 -3.25 21.0625 C-3.19144824 24.58326232 -3.1562194 28.1038976 -3.125 31.625 C-3.10824219 32.61564453 -3.09148438 33.60628906 -3.07421875 34.62695312 C-3.03725641 40.18978491 -3.37917449 44.81093075 -5.25 50.0625 C-5.91 49.7325 -6.57 49.4025 -7.25 49.0625 C-7.25 41.4725 -7.25 33.8825 -7.25 26.0625 C-7.91 26.0625 -8.57 26.0625 -9.25 26.0625 C-9.58 27.0525 -9.91 28.0425 -10.25 29.0625 C-13.125 29.6875 -13.125 29.6875 -16.25 30.0625 C-16.91 29.4025 -17.57 28.7425 -18.25 28.0625 C-18.25 27.0725 -18.25 26.0825 -18.25 25.0625 C-18.91 25.0625 -19.57 25.0625 -20.25 25.0625 C-20.91 23.0825 -21.57 21.1025 -22.25 19.0625 C-22.91 19.0625 -23.57 19.0625 -24.25 19.0625 C-24.625 16.875 -24.625 16.875 -24.25 14.0625 C-22.42130326 11.97417347 -20.55947441 10.67913209 -18.25 9.0625 C-17.59 9.0625 -16.93 9.0625 -16.25 9.0625 C-16.25 8.4025 -16.25 7.7425 -16.25 7.0625 C-14.640625 5.58984375 -14.640625 5.58984375 -12.5 4 C-11.80390625 3.47277344 -11.1078125 2.94554687 -10.390625 2.40234375 C-6.95315693 0.25078983 -3.99806104 -0.06663435 0 0 Z " fill="#75898D" transform="translate(60.25,38.9375)"/>
<path d="M0 0 C0.66 0.99 1.32 1.98 2 3 C1.401875 3.66 0.80375 4.32 0.1875 5 C-2.33947371 8.46556394 -4.11087337 11.78325092 -5 16 C-4.36088728 18.45973985 -4.36088728 18.45973985 -3 20 C-1.35 19.67 0.3 19.34 2 19 C2 17.02 2 15.04 2 13 C5.75 11.875 5.75 11.875 8 13 C8.33 12.01 8.66 11.02 9 10 C9.66 10.66 10.32 11.32 11 12 C2.81242627 24.36846245 2.81242627 24.36846245 -3 29 C-3.66 29 -4.32 29 -5 29 C-5 29.66 -5 30.32 -5 31 C-8.18762365 33.12508244 -10.26512223 33.5020163 -14 34 C-14 33.34 -14 32.68 -14 32 C-14.66 32 -15.32 32 -16 32 C-18.65472024 24.39092926 -18.65472024 24.39092926 -17.08984375 21.06640625 C-15.75 19.4375 -15.75 19.4375 -13 17 C-12.34 17 -11.68 17 -11 17 C-11 16.34 -11 15.68 -11 15 C-10.34 15 -9.68 15 -9 15 C-9 14.34 -9 13.68 -9 13 C-8.34 13 -7.68 13 -7 13 C-6.72414063 12.43796875 -6.44828125 11.8759375 -6.1640625 11.296875 C-4.95631972 8.91381206 -3.67823191 6.5820992 -2.375 4.25 C-1.92898437 3.45078125 -1.48296875 2.6515625 -1.0234375 1.828125 C-0.68570313 1.22484375 -0.34796875 0.6215625 0 0 Z " fill="#72A1A5" transform="translate(120,100)"/>
<path d="M0 0 C1.2065625 0.0309375 1.2065625 0.0309375 2.4375 0.0625 C3.43040126 3.04120377 3.49274548 4.65432885 3.31640625 7.73046875 C3.26806641 8.62314453 3.21972656 9.51582031 3.16992188 10.43554688 C3.11384766 11.36431641 3.05777344 12.29308594 3 13.25 C2.94779297 14.19037109 2.89558594 15.13074219 2.84179688 16.09960938 C2.71218082 18.42091501 2.57721819 20.74178409 2.4375 23.0625 C0.71027272 23.28634382 -1.01946007 23.49089969 -2.75 23.6875 C-4.19439453 23.86152344 -4.19439453 23.86152344 -5.66796875 24.0390625 C-8.86412329 24.06494229 -10.74925103 23.5518671 -13.5625 22.0625 C-15.92998228 18.70220257 -16.71746244 17.03101527 -16.0625 12.9375 C-14.29213144 9.54429359 -12.8944808 7.95567091 -9.5625 6.0625 C-6.25 6.3125 -6.25 6.3125 -3.5625 7.0625 C-3.583125 6.093125 -3.60375 5.12375 -3.625 4.125 C-3.54257968 0.08640438 -3.54257968 0.08640438 0 0 Z M-7.5625 12.0625 C-8.2225 12.7225 -8.8825 13.3825 -9.5625 14.0625 C-9.2439823 16.17070797 -9.2439823 16.17070797 -8.5625 18.0625 C-6.9125 17.7325 -5.2625 17.4025 -3.5625 17.0625 C-3.5625 15.7425 -3.5625 14.4225 -3.5625 13.0625 C-5.45429203 12.3810177 -5.45429203 12.3810177 -7.5625 12.0625 Z " fill="#4B8BB7" transform="translate(248.5625,58.9375)"/>
<path d="M0 0 C4.875 0.875 4.875 0.875 6 2 C6.28101946 4.31952569 6.44782625 6.63885514 6.62109375 8.96875 C6.74613281 9.6390625 6.87117187 10.309375 7 11 C7.66 11.33 8.32 11.66 9 12 C8.97679687 11.38511719 8.95359375 10.77023438 8.9296875 10.13671875 C8.90261719 8.92435547 8.90261719 8.92435547 8.875 7.6875 C8.85179687 6.88699219 8.82859375 6.08648437 8.8046875 5.26171875 C9 3 9 3 11 0 C13.5625 -0.25 13.5625 -0.25 16 0 C17 1 17 1 17.09765625 4.59765625 C17.0909822 6.08596867 17.07902183 7.57426432 17.0625 9.0625 C17.05798828 9.82111328 17.05347656 10.57972656 17.04882812 11.36132812 C17.0370068 13.24091871 17.01907078 15.12046899 17 17 C14.56065775 17.13501894 12.12875896 17.23403897 9.6875 17.3125 C8.99720703 17.35439453 8.30691406 17.39628906 7.59570312 17.43945312 C5.57421875 17.48828125 5.57421875 17.48828125 2 17 C-0.88508573 13.77650461 -1.37836029 11.05480746 -1.25 6.8125 C-1.23453125 5.95269531 -1.2190625 5.09289062 -1.203125 4.20703125 C-1 2 -1 2 0 0 Z " fill="#3F528A" transform="translate(195,65)"/>
<path d="M0 0 C0.95390625 -0.03738281 1.9078125 -0.07476562 2.890625 -0.11328125 C6.64950068 0.44644204 8.21393881 1.49210645 10.75 4.3125 C11.23828125 7.546875 11.23828125 7.546875 11.0625 11.0625 C10.99482422 12.81820312 10.99482422 12.81820312 10.92578125 14.609375 C10.86777344 15.50140625 10.80976563 16.3934375 10.75 17.3125 C8.77 17.3125 6.79 17.3125 4.75 17.3125 C4.42 14.3425 4.09 11.3725 3.75 8.3125 C2.76 8.3125 1.77 8.3125 0.75 8.3125 C0.42 11.2825 0.09 14.2525 -0.25 17.3125 C-2.23 17.3125 -4.21 17.3125 -6.25 17.3125 C-6.27684679 14.66659986 -6.29676357 12.02096904 -6.3125 9.375 C-6.32087891 8.62025391 -6.32925781 7.86550781 -6.33789062 7.08789062 C-6.34652441 5.16255687 -6.30224333 3.23714419 -6.25 1.3125 C-4.53310511 -0.40439489 -2.34121863 0.05946946 0 0 Z " fill="#4160A6" transform="translate(220.25,64.6875)"/>
<path d="M0 0 C4.45672925 1.79939495 7.73465016 2.132395 12.29296875 0.92578125 C14.96595063 0.83289771 17.61713509 0.88118402 20.29296875 0.92578125 C20.29296875 1.91578125 20.29296875 2.90578125 20.29296875 3.92578125 C14.91538056 7.51084004 7.98728827 7.0651426 1.66796875 6.73828125 C-1.28473732 6.0274446 -3.53232808 5.11432062 -6.26953125 3.86328125 C-12.61805055 1.14529076 -18.92084861 1.57376025 -25.70703125 1.92578125 C-25.70703125 -2.07421875 -25.70703125 -2.07421875 -24.70703125 -3.07421875 C-15.53407695 -4.7122463 -8.5433535 -3.64251506 0 0 Z " fill="#76858D" transform="translate(68.70703125,101.07421875)"/>
<path d="M0 0 C0.99 0.33 1.98 0.66 3 1 C5.37654563 6.00325395 5.16411145 10.58432202 5 16 C0.05 16 -4.9 16 -10 16 C-10 13.69 -10 11.38 -10 9 C-9.34 9 -8.68 9 -8 9 C-8 8.34 -8 7.68 -8 7 C-6.02 7 -4.04 7 -2 7 C-2 6.34 -2 5.68 -2 5 C-3.11375 5.061875 -4.2275 5.12375 -5.375 5.1875 C-6.57125 5.125625 -7.7675 5.06375 -9 5 C-9.66 4.01 -10.32 3.02 -11 2 C-6.9543597 -0.97473551 -4.8372841 -1.2619002 0 0 Z M-5 10 C-5 10.66 -5 11.32 -5 12 C-4.01 12 -3.02 12 -2 12 C-2 11.34 -2 10.68 -2 10 C-2.99 10 -3.98 10 -5 10 Z " fill="#98D9D1" transform="translate(324,66)"/>
<path d="M0 0 C0.33 1.65 0.66 3.3 1 5 C0.67 4.01 0.34 3.02 0 2 C-0.99 2 -1.98 2 -3 2 C-2.77183594 2.60328125 -2.54367187 3.2065625 -2.30859375 3.828125 C-2.02113281 4.62734375 -1.73367188 5.4265625 -1.4375 6.25 C-1.14746094 7.03890625 -0.85742188 7.8278125 -0.55859375 8.640625 C0 11 0 11 -1 15 C-2.32 12.03 -3.64 9.06 -5 6 C-6.65 6.33 -8.3 6.66 -10 7 C-10.33 9.97 -10.66 12.94 -11 16 C-13.31 16 -15.62 16 -18 16 C-18.02685095 13.52076199 -18.04676547 11.0418116 -18.0625 8.5625 C-18.07506836 7.50192383 -18.07506836 7.50192383 -18.08789062 6.41992188 C-18.09653588 4.61306441 -18.05220011 2.80612397 -18 1 C-14.19766804 -2.80233196 -4.78223216 -0.71954882 0 0 Z " fill="#5593A1" transform="translate(271,66)"/>
<path d="M0 0 C3.44824434 1.2378313 6.79503928 1.50458027 10.4375 1.875 C10.4375 3.195 10.4375 4.515 10.4375 5.875 C4.06444308 6.43954244 -0.76425115 6.07352898 -6.625 3.375 C-12.22330643 0.81122189 -16.48174638 0.24455397 -22.5625 0.875 C-23.35398437 0.95492187 -24.14546875 1.03484375 -24.9609375 1.1171875 C-26.83262912 1.33390969 -28.69864589 1.59887346 -30.5625 1.875 C-30.2325 0.555 -29.9025 -0.765 -29.5625 -2.125 C-19.10227069 -5.84419264 -9.95325087 -4.36971989 0 0 Z " fill="#95AFB0" transform="translate(101.5625,99.125)"/>
<path d="M0 0 C0.66 0 1.32 0 2 0 C2.33 7.59 2.66 15.18 3 23 C3.33 21.35 3.66 19.7 4 18 C4.33 18 4.66 18 5 18 C5 19.98 5 21.96 5 24 C6.32 24 7.64 24 9 24 C9.66 25.32 10.32 26.64 11 28 C9.81664063 28.03738281 8.63328125 28.07476562 7.4140625 28.11328125 C-4.02378744 28.51764972 -4.02378744 28.51764972 -15.0546875 31.37890625 C-17 32 -17 32 -21 32 C-21 30.68 -21 29.36 -21 28 C-19.58521865 27.35004703 -18.16808513 26.70521278 -16.75 26.0625 C-15.96109375 25.70285156 -15.1721875 25.34320313 -14.359375 24.97265625 C-8.8298337 22.69309369 -5.38712276 23 1 23 C0.505 11.615 0.505 11.615 0 0 Z " fill="#6F818B" transform="translate(51,65)"/>
<path d="M0 0 C1.11632813 -0.02578125 2.23265625 -0.0515625 3.3828125 -0.078125 C6.875 0.25 6.875 0.25 10.24609375 1.75390625 C14.66152856 3.57426312 18.10941391 3.59467254 22.8125 3.4375 C23.98135742 3.41719727 23.98135742 3.41719727 25.17382812 3.39648438 C27.07452404 3.36150224 28.97485834 3.30770959 30.875 3.25 C31.37 5.23 31.37 5.23 31.875 7.25 C24.23011249 9.8525149 18.09568428 10.30125779 10.5 7.25 C4.85014374 4.98046792 -0.10375921 4.83072598 -6.125 5.25 C-6.6875 3.3125 -6.6875 3.3125 -7.125 1.25 C-5.28846389 -0.58653611 -2.46707867 0.03371862 0 0 Z " fill="#72848F" transform="translate(52.125,105.75)"/>
<path d="M0 0 C0.66 0 1.32 0 2 0 C2 0.99 2 1.98 2 3 C2.66 3 3.32 3 4 3 C4.268125 3.721875 4.53625 4.44375 4.8125 5.1875 C6.6357074 9.50562279 8.05272694 12.36848463 12 15 C13.21056661 17.62289433 14.0864622 20.25938661 15 23 C16.32 22.67 17.64 22.34 19 22 C19.391875 22.78375 19.78375 23.5675 20.1875 24.375 C22.24274669 27.35156418 23.59679258 27.98823563 27 29 C27 29.66 27 30.32 27 31 C27.99 31 28.98 31 30 31 C30.33 31.99 30.66 32.98 31 34 C33.28697319 34.91039125 35.58315365 35.45841999 37.96875 36.05859375 C40 37 40 37 40.78125 39.09765625 C40.88953125 40.03931641 40.88953125 40.03931641 41 41 C25.54516386 36.69291452 13.04636246 26.34416659 4.96142578 12.59545898 C0 3.75748186 0 3.75748186 0 0 Z " fill="#373064" transform="translate(10,100)"/>
<path d="M0 0 C0.66 0.33 1.32 0.66 2 1 C1.01 2.485 1.01 2.485 0 4 C-0.99 4 -1.98 4 -3 4 C-3 4.66 -3 5.32 -3 6 C-5.97 5.505 -5.97 5.505 -9 5 C-9.66 6.65 -10.32 8.3 -11 10 C-11.66 10 -12.32 10 -13 10 C-13.33 10.99 -13.66 11.98 -14 13 C-13.34 13 -12.68 13 -12 13 C-12 13.66 -12 14.32 -12 15 C-9.03 15.33 -6.06 15.66 -3 16 C-6.49584944 18.33056629 -8.47683604 18.40697006 -12.625 18.6875 C-13.79289062 18.77386719 -14.96078125 18.86023438 -16.1640625 18.94921875 C-17.09992188 18.96597656 -18.03578125 18.98273438 -19 19 C-20 18 -20 18 -20.09765625 15.05859375 C-20.08605469 13.86363281 -20.07445313 12.66867188 -20.0625 11.4375 C-20.05347656 10.23996094 -20.04445313 9.04242188 -20.03515625 7.80859375 C-20.02355469 6.88175781 -20.01195313 5.95492187 -20 5 C-18.80761719 4.72285156 -17.61523438 4.44570312 -16.38671875 4.16015625 C-14.82029523 3.79434477 -13.25388993 3.42845529 -11.6875 3.0625 C-10.90181641 2.88009766 -10.11613281 2.69769531 -9.30664062 2.50976562 C-8.54931641 2.33251953 -7.79199219 2.15527344 -7.01171875 1.97265625 C-6.31522217 1.81031494 -5.61872559 1.64797363 -4.90112305 1.48071289 C-3.2465594 1.06234435 -1.61905892 0.53968631 0 0 Z " fill="#61818F" transform="translate(93,126)"/>
<path d="M0 0 C0.763125 0.20625 1.52625 0.4125 2.3125 0.625 C2.37105176 4.14576232 2.4062806 7.6663976 2.4375 11.1875 C2.45425781 12.17814453 2.47101562 13.16878906 2.48828125 14.18945312 C2.52524359 19.75228491 2.18332551 24.37343075 0.3125 29.625 C-0.3475 29.295 -1.0075 28.965 -1.6875 28.625 C-1.6875 21.035 -1.6875 13.445 -1.6875 5.625 C-2.3475 5.625 -3.0075 5.625 -3.6875 5.625 C-4.0175 6.615 -4.3475 7.605 -4.6875 8.625 C-7.5625 9.25 -7.5625 9.25 -10.6875 9.625 C-11.3475 8.965 -12.0075 8.305 -12.6875 7.625 C-12.3125 5 -12.3125 5 -11.6875 2.625 C-8.7175 3.12 -8.7175 3.12 -5.6875 3.625 C-5.6875 2.965 -5.6875 2.305 -5.6875 1.625 C-2.6875 -0.375 -2.6875 -0.375 0 0 Z " fill="#90A6AF" transform="translate(54.6875,59.375)"/>
<path d="M0 0 C1.98 0 3.96 0 6 0 C6 7.66666667 6 15.33333333 6 23 C3.69 23 1.38 23 -1 23 C-1.05383848 20.54137599 -1.09359038 18.0839245 -1.125 15.625 C-1.14175781 14.92632812 -1.15851563 14.22765625 -1.17578125 13.5078125 C-1.19344267 11.67102514 -1.10303261 9.83398037 -1 8 C-0.34 7.34 0.32 6.68 1 6 C0.34 5.67 -0.32 5.34 -1 5 C-0.67 3.35 -0.34 1.7 0 0 Z " fill="#6E9B98" transform="translate(362,59)"/>
<path d="M0 0 C1.65 0 3.3 0 5 0 C5.66 1.98 6.32 3.96 7 6 C6.01 6 5.02 6 4 6 C4.01160156 6.90621094 4.02320312 7.81242187 4.03515625 8.74609375 C4.13915858 22.78640777 4.13915858 22.78640777 3 29 C-0.22791555 31.1519437 -1.28400809 31.20086443 -5 31 C-5 30.01 -5 29.02 -5 28 C-3.35 28 -1.7 28 0 28 C0 18.76 0 9.52 0 0 Z " fill="#8EB2AF" transform="translate(90,59)"/>
<path d="M0 0 C0.9075 0.165 1.815 0.33 2.75 0.5 C5.92546075 1.18096091 5.92546075 1.18096091 8.75 0.4375 C9.4925 0.293125 10.235 0.14875 11 0 C11.66 0.66 12.32 1.32 13 2 C12.01 2.33 11.02 2.66 10 3 C9.67 3.99 9.34 4.98 9 6 C8.01 6.66 7.02 7.32 6 8 C5.42006301 10.19454681 5.42006301 10.19454681 5.3125 12.625 C5.24675781 13.44226563 5.18101562 14.25953125 5.11328125 15.1015625 C5.07589844 15.72804688 5.03851563 16.35453125 5 17 C3.02 17 1.04 17 -1 17 C-1.02684679 14.35409986 -1.04676357 11.70846904 -1.0625 9.0625 C-1.07087891 8.30775391 -1.07925781 7.55300781 -1.08789062 6.77539062 C-1.09652441 4.85005687 -1.05224333 2.92464419 -1 1 C-0.67 0.67 -0.34 0.34 0 0 Z " fill="#8AC6C0" transform="translate(332,65)"/>
<path d="M0 0 C0.62003906 0.13277344 1.24007812 0.26554687 1.87890625 0.40234375 C9.91561245 2.00500568 17.82982404 2.58101662 26 3 C26 3.33 26 3.66 26 4 C24.02 4 22.04 4 20 4 C20 8.62 20 13.24 20 18 C17.64499052 17.88482579 15.29150927 17.75812022 12.9375 17.625 C11.62652344 17.55539063 10.31554687 17.48578125 8.96484375 17.4140625 C5.01863043 17.00194564 1.75882927 16.20243433 -2 15 C-2 14.67 -2 14.34 -2 14 C5.75 13.875 5.75 13.875 8 15 C10.3329866 15.04022391 12.66706666 15.04320247 15 15 C15.99 11.7 16.98 8.4 18 5 C16.515 5.061875 15.03 5.12375 13.5 5.1875 C8.33155773 5.20958736 4.6974669 4.08776307 0 2 C0 1.34 0 0.68 0 0 Z " fill="#363869" transform="translate(53,127)"/>
<path d="M0 0 C3.98907894 1.36768421 7.00182346 3.00182346 10 6 C10.3125 8.75 10.3125 8.75 10 11 C9.34 11 8.68 11 8 11 C7.8453125 11.8353125 7.8453125 11.8353125 7.6875 12.6875 C6.86866423 15.44176578 5.54146219 17.58727657 4 20 C2.68 19.67 1.36 19.34 0 19 C1.31061591 14.76570244 2.94356259 10.92592596 5 7 C4.195625 6.7525 3.39125 6.505 2.5625 6.25 C0 5 0 5 -0.875 2.9375 C-0.91625 2.298125 -0.9575 1.65875 -1 1 C-0.67 0.67 -0.34 0.34 0 0 Z M-2 19 C0 20 0 20 0 20 Z " fill="#8DB0AF" transform="translate(100,47)"/>
<path d="M0 0 C2.31 0 4.62 0 7 0 C7 0.66 7 1.32 7 2 C7.99 2 8.98 2 10 2 C10 2.66 10 3.32 10 4 C9.34 4 8.68 4 8 4 C11.2436349 8.7079978 11.2436349 8.7079978 16.3125 10.875 C17.199375 10.91625 18.08625 10.9575 19 11 C19.33 11.99 19.66 12.98 20 14 C19 15 19 15 17.109375 15.01953125 C11.99592227 14.57083424 8.52382152 14.07441864 5 10 C4.64080679 8.00448218 4.30503431 6.00451121 4 4 C2.04836882 2.56362302 2.04836882 2.56362302 0 2 C0 1.34 0 0.68 0 0 Z " fill="#A1C6C2" transform="translate(57,40)"/>
<path d="M0 0 C0.495 0.391875 0.99 0.78375 1.5 1.1875 C-0.81 1.1875 -3.12 1.1875 -5.5 1.1875 C-5.83 2.8375 -6.16 4.4875 -6.5 6.1875 C-7.49 6.1875 -8.48 6.1875 -9.5 6.1875 C-9.5 6.8475 -9.5 7.5075 -9.5 8.1875 C-11.27007714 8.26864106 -13.04122098 8.32675505 -14.8125 8.375 C-16.29169922 8.42720703 -16.29169922 8.42720703 -17.80078125 8.48046875 C-20.5 8.1875 -20.5 8.1875 -22.35546875 6.67578125 C-22.73316406 6.18464844 -23.11085938 5.69351563 -23.5 5.1875 C-22.84 5.1875 -22.18 5.1875 -21.5 5.1875 C-21.5 4.5275 -21.5 3.8675 -21.5 3.1875 C-22.49 3.1875 -23.48 3.1875 -24.5 3.1875 C-24.17 2.5275 -23.84 1.8675 -23.5 1.1875 C-22.51 1.5175 -21.52 1.8475 -20.5 2.1875 C-15.38052385 2.66034682 -10.89555243 2.58528583 -6.125 0.5625 C-2.5 -0.8125 -2.5 -0.8125 0 0 Z " fill="#94B3B1" transform="translate(88.5,38.8125)"/>
<path d="M0 0 C1.65 0 3.3 0 5 0 C5 6.6 5 13.2 5 20 C3.35 20 1.7 20 0 20 C0 13.4 0 6.8 0 0 Z " fill="#53A6D6" transform="translate(246,62)"/>
<path d="M0 0 C2.97 0.33 5.94 0.66 9 1 C11.3992233 5.64849515 11.19957409 9.91086074 11 15 C8.03 14.505 8.03 14.505 5 14 C5.04125 13.236875 5.0825 12.47375 5.125 11.6875 C5.22080824 8.77281584 5.22080824 8.77281584 3 6 C3.99 6 4.98 6 6 6 C6 5.01 6 4.02 6 3 C3.69 3 1.38 3 -1 3 C-0.67 2.01 -0.34 1.02 0 0 Z " fill="#4956B5" transform="translate(180,67)"/>
<path d="M0 0 C5.46438104 0.02404568 9.12639926 0.59961819 13.875 3.25 C13.215 4.57 12.555 5.89 11.875 7.25 C10.946875 6.92 10.01875 6.59 9.0625 6.25 C4.06595127 4.79010305 -0.9683358 5.08215198 -6.125 5.25 C-6.6875 3.3125 -6.6875 3.3125 -7.125 1.25 C-5.28846389 -0.58653611 -2.46707867 0.03371862 0 0 Z " fill="#7D8F9D" transform="translate(52.125,105.75)"/>
<path d="M0 0 C0.91892116 3.67568464 0.95904856 5.16380575 0 9 C-4.455 9.495 -4.455 9.495 -9 10 C-9 7 -9 4 -9 1 C-6.04335481 -0.4783226 -3.25770263 -0.06032783 0 0 Z " fill="#869CA1" transform="translate(88,76)"/>
<path d="M0 0 C0.33 0 0.66 0 1 0 C0.835 1.258125 0.67 2.51625 0.5 3.8125 C-0.92895209 17.26146085 1.56226062 28.32074462 6 41 C5.01 41 4.02 41 3 41 C2.67 38.69 2.34 36.38 2 34 C1.34 34 0.68 34 0 34 C-2.94531843 27.02887063 -3.31035736 21.11800465 -2.8125 13.625 C-2.76802734 12.64144531 -2.72355469 11.65789062 -2.67773438 10.64453125 C-2.2772403 3.41586045 -2.2772403 3.41586045 0 0 Z " fill="#4A487B" transform="translate(21,63)"/>
<path d="M0 0 C1 1 1 1 1.09765625 3.94140625 C1.08605469 5.13636719 1.07445312 6.33132812 1.0625 7.5625 C1.05347656 8.76003906 1.04445312 9.95757812 1.03515625 11.19140625 C1.02355469 12.11824219 1.01195312 13.04507813 1 14 C-0.65 14 -2.3 14 -4 14 C-4 10.04 -4 6.08 -4 2 C-4.99 2 -5.98 2 -7 2 C-7 1.34 -7 0.68 -7 0 C-3.86350275 -1.04549908 -3.0051095 -1.00170317 0 0 Z " fill="#4A87CC" transform="translate(230,68)"/>
<path d="M0 0 C2.19921875 1.6640625 2.19921875 1.6640625 4 4 C4.390625 7.015625 4.390625 7.015625 4.25 10.25 C4.21390625 11.32765625 4.1778125 12.4053125 4.140625 13.515625 C4.07101563 14.74539062 4.07101563 14.74539062 4 16 C3.67 16 3.34 16 3 16 C2.93941406 15.40832031 2.87882813 14.81664063 2.81640625 14.20703125 C2.37987629 10.09021792 1.91328654 6.04455467 1 2 C-1.97 2 -4.94 2 -8 2 C-8.33 2.66 -8.66 3.32 -9 4 C-6.69 4 -4.38 4 -2 4 C-2 4.99 -2 5.98 -2 7 C-6.95 8.485 -6.95 8.485 -12 10 C-11.67 8.35 -11.34 6.7 -11 5 C-11.36856864 2.76832815 -11.36856864 2.76832815 -12 1 C-7.67437961 -1.2283499 -4.69542622 -1.1951994 0 0 Z M-8 5 C-8 5.33 -8 5.66 -8 6 C-6.35 6 -4.7 6 -3 6 C-3 5.67 -3 5.34 -3 5 C-4.65 5 -6.3 5 -8 5 Z " fill="#3E4783" transform="translate(188,66)"/>
<path d="M0 0 C0.66 0.33 1.32 0.66 2 1 C0.68 2.65 -0.64 4.3 -2 6 C-1.01 6.33 -0.02 6.66 1 7 C0.01 7.99 -0.98 8.98 -2 10 C-1.01 11.98 -0.02 13.96 1 16 C-0.65 16.66 -2.3 17.32 -4 18 C-4.66 16.02 -5.32 14.04 -6 12 C-6.66 12 -7.32 12 -8 12 C-8.375 9.8125 -8.375 9.8125 -8 7 C-6.17130326 4.91167347 -4.30947441 3.61663209 -2 2 C-1.34 2 -0.68 2 0 2 C0 1.34 0 0.68 0 0 Z " fill="#7B8F9B" transform="translate(44,46)"/>
<path d="M0 0 C0.33 0 0.66 0 1 0 C1.28788454 4.14408265 1.57259951 8.2883678 1.85449219 12.43286133 C1.9506451 13.84014638 2.04763511 15.24737452 2.14550781 16.65454102 C2.28675666 18.68751547 2.42490504 20.72068161 2.5625 22.75390625 C2.64628906 23.97408447 2.73007813 25.1942627 2.81640625 26.45141602 C2.99869255 29.97472903 3.03165291 33.47267844 3 37 C-1.54272525 30.18591212 -1.28796313 22.66014974 -1.1875 14.75 C-1.18685547 13.7703125 -1.18621094 12.790625 -1.18554688 11.78125 C-1.13729347 3.93202909 -1.13729347 3.93202909 0 0 Z " fill="#3C3A66" transform="translate(7,63)"/>
<path d="M0 0 C1.65 0 3.3 0 5 0 C4.42415568 2.38564077 3.77772405 4.66682784 3 7 C4.32 6.67 5.64 6.34 7 6 C7 8.97 7 11.94 7 15 C5.02 15 3.04 15 1 15 C0.67 10.05 0.34 5.1 0 0 Z " fill="#A4DFD9" transform="translate(341,67)"/>
<path d="M0 0 C0.99 0.66 1.98 1.32 3 2 C1.95606023 3.65766805 0.88907121 5.30083631 -0.1875 6.9375 C-0.77917969 7.85402344 -1.37085937 8.77054688 -1.98046875 9.71484375 C-4.34048205 12.38526499 -5.56445453 12.54385195 -9 13 C-9.33 13.66 -9.66 14.32 -10 15 C-10.66 14.34 -11.32 13.68 -12 13 C-12.99 13.66 -13.98 14.32 -15 15 C-14.25 13.0625 -14.25 13.0625 -13 11 C-11.0625 10.3125 -11.0625 10.3125 -9 10 C-8.01 9.67 -7.02 9.34 -6 9 C-6 7.02 -6 5.04 -6 3 C-2.25 1.875 -2.25 1.875 0 3 C0 2.01 0 1.02 0 0 Z " fill="#77A7A8" transform="translate(128,110)"/>
<path d="M0 0 C0 0.99 0 1.98 0 3 C-3.40431947 5.26954631 -5.16524202 5.36549949 -9.1875 5.625 C-10.27417969 5.69976562 -11.36085938 5.77453125 -12.48046875 5.8515625 C-13.72763672 5.92503906 -13.72763672 5.92503906 -15 6 C-15 5.34 -15 4.68 -15 4 C-16.32 4 -17.64 4 -19 4 C-19 3.34 -19 2.68 -19 2 C-12.56971459 0.67611771 -6.5705166 -0.24794402 0 0 Z " fill="#76888F" transform="translate(89,102)"/>
<path d="M0 0 C0 0.99 0 1.98 0 3 C-0.99 3.66 -1.98 4.32 -3 5 C-3.36416047 7.43693311 -3.36416047 7.43693311 -3.1875 10.125 C-3.16042969 11.03507812 -3.13335937 11.94515625 -3.10546875 12.8828125 C-3.07066406 13.58148438 -3.03585937 14.28015625 -3 15 C-4.65 15 -6.3 15 -8 15 C-8.08078641 12.87561661 -8.13909141 10.7503677 -8.1875 8.625 C-8.22230469 7.44164063 -8.25710937 6.25828125 -8.29296875 5.0390625 C-8.19628906 4.03617187 -8.09960938 3.03328125 -8 2 C-4.77208445 -0.1519437 -3.71599191 -0.20086443 0 0 Z " fill="#56B4DF" transform="translate(263,67)"/>
<path d="M0 0 C0.928125 0.20625 1.85625 0.4125 2.8125 0.625 C2.1525 1.285 1.4925 1.945 0.8125 2.625 C1.4725 3.945 2.1325 5.265 2.8125 6.625 C2.02875 6.728125 1.245 6.83125 0.4375 6.9375 C-2.51795181 7.40095022 -2.51795181 7.40095022 -4.1875 10.625 C-6.1875 9.625 -6.1875 9.625 -7.1875 6.625 C-7.5175 8.275 -7.8475 9.925 -8.1875 11.625 C-7.5275 11.955 -6.8675 12.285 -6.1875 12.625 C-6.8475 13.285 -7.5075 13.945 -8.1875 14.625 C-9.4375 11.5 -9.4375 11.5 -10.1875 7.625 C-7.81066402 2.95935899 -5.63395302 -0.662818 0 0 Z " fill="#4679AB" transform="translate(242.1875,65.375)"/>
<path d="M0 0 C0 4.16677937 -1.99202543 5.39311473 -4.78515625 8.28125 C-5.18605469 8.8484375 -5.58695312 9.415625 -6 10 C-5.67 10.99 -5.34 11.98 -5 13 C-6.32 13 -7.64 13 -9 13 C-9 11.02 -9 9.04 -9 7 C-9.99 7.33 -10.98 7.66 -12 8 C-9.40790268 1.95177293 -6.74363595 -0.61305781 0 0 Z " fill="#80C2BB" transform="translate(312,61)"/>
<path d="M0 0 C0.83337891 1.06927734 0.83337891 1.06927734 1.68359375 2.16015625 C8.76862739 10.84619243 15.74795648 17.30032048 26 22 C22.52176885 23.15941038 20.54104422 22.70820884 17 22 C17 21.34 17 20.68 17 20 C16.360625 19.896875 15.72125 19.79375 15.0625 19.6875 C14.0415625 19.3471875 14.0415625 19.3471875 13 19 C12.67 18.01 12.34 17.02 12 16 C11.34 15.67 10.68 15.34 10 15 C10 14.34 10 13.68 10 13 C9.01 13 8.02 13 7 13 C7 12.01 7 11.02 7 10 C6.34 10 5.68 10 5 10 C3.5 8.625 3.5 8.625 2 7 C1.34 6.34 0.68 5.68 0 5 C-0.125 2.375 -0.125 2.375 0 0 Z " fill="#3E3A6B" transform="translate(27,104)"/>
<path d="M0 0 C1.9375 1.125 1.9375 1.125 4 3 C4.75 6.1875 4.75 6.1875 5 9 C1.7 9 -1.6 9 -5 9 C-5.66 7.02 -6.32 5.04 -7 3 C-4.69 2.01 -2.38 1.02 0 0 Z M0 3 C0 3.66 0 4.32 0 5 C0.99 5 1.98 5 3 5 C3 4.34 3 3.68 3 3 C2.01 3 1.02 3 0 3 Z " fill="#4751AA" transform="translate(182,73)"/>
<path d="M0 0 C1.65 0.33 3.3 0.66 5 1 C4.38416344 2.98203709 3.75706166 4.9605772 3.125 6.9375 C2.77695312 8.03964844 2.42890625 9.14179687 2.0703125 10.27734375 C1 13 1 13 -1 14 C-1 12.68 -1 11.36 -1 10 C-2.65 10.33 -4.3 10.66 -6 11 C-6.33 9.35 -6.66 7.7 -7 6 C-6.01 6 -5.02 6 -4 6 C-1.78831775 3.05763218 -1.78831775 3.05763218 0 0 Z " fill="#7EC2C1" transform="translate(279,65)"/>
<path d="M0 0 C4.875 0.875 4.875 0.875 6 2 C6.28101946 4.31952569 6.44782625 6.63885514 6.62109375 8.96875 C6.74613281 9.6390625 6.87117187 10.309375 7 11 C7.66 11.33 8.32 11.66 9 12 C9.33 11.34 9.66 10.68 10 10 C9.67 11.32 9.34 12.64 9 14 C6.525 13.01 6.525 13.01 4 12 C3.8046875 9.94921875 3.609375 7.8984375 3.4140625 5.84765625 C3.27742187 5.23792969 3.14078125 4.62820312 3 4 C2.34 3.67 1.68 3.34 1 3 C1.33 7.29 1.66 11.58 2 16 C0 15 0 15 -1 12 C-1.09287771 10.31454276 -1.12997204 8.625507 -1.125 6.9375 C-1.12757813 6.05964844 -1.13015625 5.18179688 -1.1328125 4.27734375 C-1 2 -1 2 0 0 Z " fill="#374880" transform="translate(195,65)"/>
<path d="M0 0 C2.64 0.66 5.28 1.32 8 2 C8 2.33 8 2.66 8 3 C6.02 3 4.04 3 2 3 C1.87625 3.928125 1.7525 4.85625 1.625 5.8125 C1 9 1 9 -1 12 C-2.9453125 12.29296875 -2.9453125 12.29296875 -5.125 12.1875 C-6.40375 12.125625 -7.6825 12.06375 -9 12 C-9.66 10.68 -10.32 9.36 -11 8 C-9.68 7.67 -8.36 7.34 -7 7 C-7 8.32 -7 9.64 -7 11 C-6.34 11 -5.68 11 -5 11 C-5.66 8.69 -6.32 6.38 -7 4 C-5.68 5.32 -4.36 6.64 -3 8 C-0.7986134 4.19572508 -0.7986134 4.19572508 0 0 Z " fill="#88BFBA" transform="translate(314,70)"/>
<path d="M0 0 C1.32 0 2.64 0 4 0 C4 4.62 4 9.24 4 14 C2.35 14 0.7 14 -1 14 C-0.67 9.38 -0.34 4.76 0 0 Z " fill="#4761C1" transform="translate(206,67)"/>
<path d="M0 0 C0.66 0.33 1.32 0.66 2 1 C1.67 2.98 1.34 4.96 1 7 C2.32 7 3.64 7 5 7 C6.4606285 9.64738916 7 10.89448334 7 14 C6.34 14 5.68 14 5 14 C4.67 13.01 4.34 12.02 4 11 C3.01 11 2.02 11 1 11 C0.67 10.34 0.34 9.68 0 9 C-1.64363134 8.27840576 -3.31050386 7.60648579 -5 7 C-4.67 5.68 -4.34 4.36 -4 3 C-2.68 2.67 -1.36 2.34 0 2 C0 1.34 0 0.68 0 0 Z " fill="#99E9DE" transform="translate(302,67)"/>
<path d="M0 0 C0.99 0 1.98 0 3 0 C4.25664978 2.90600261 5 4.79604584 5 8 C6.65 7.34 8.3 6.68 10 6 C10.33 6.99 10.66 7.98 11 9 C9.8125 11.1875 9.8125 11.1875 8 13 C6.68 13 5.36 13 4 13 C2.42445965 10.11371599 1.53723627 7.46657616 0.875 4.25 C0.70742188 3.45078125 0.53984375 2.6515625 0.3671875 1.828125 C0.24601562 1.22484375 0.12484375 0.6215625 0 0 Z " fill="#8BDDDC" transform="translate(268,68)"/>
<path d="M0 0 C0.99 0 1.98 0 3 0 C3 4.95 3 9.9 3 15 C1.35 15 -0.3 15 -2 15 C-2.19909954 10.71935998 -1.64965775 7.91793715 0 4 C0 2.68 0 1.36 0 0 Z " fill="#A4E9E1" transform="translate(364,67)"/>
<path d="M0 0 C2 3 2 3 2 5 C1.34 5 0.68 5 0 5 C-0.33 5.99 -0.66 6.98 -1 8 C-3.875 8.625 -3.875 8.625 -7 9 C-7.66 8.34 -8.32 7.68 -9 7 C-8.625 4.375 -8.625 4.375 -8 2 C-5.03 2.495 -5.03 2.495 -2 3 C-2 2.34 -2 1.68 -2 1 C-1.34 0.67 -0.68 0.34 0 0 Z " fill="#81939E" transform="translate(51,60)"/>
<path d="M0 0 C5.97031739 0.29123499 8.894534 3.02814384 13 7 C12.01 7.66 11.02 8.32 10 9 C9.67 9.66 9.34 10.32 9 11 C8.01 10.34 7.02 9.68 6 9 C6 8.34 6 7.68 6 7 C3.36 6.34 0.72 5.68 -2 5 C-0.68 3.68 0.64 2.36 2 1 C1.34 0.67 0.68 0.34 0 0 Z " fill="#89A5A3" transform="translate(90,40)"/>
<path d="M0 0 C0.66 0 1.32 0 2 0 C2 2.97 2 5.94 2 9 C-2.95 9 -7.9 9 -13 9 C-12.01 8.01 -11.02 7.02 -10 6 C-9.34 5.01 -8.68 4.02 -8 3 C-8 3.66 -8 4.32 -8 5 C-7.01 5 -6.02 5 -5 5 C-4.67 4.34 -4.34 3.68 -4 3 C-4.33 4.32 -4.66 5.64 -5 7 C-2.96758273 6.36020151 -2.96758273 6.36020151 -1 5 C-0.18828772 2.44480079 -0.18828772 2.44480079 0 0 Z " fill="#80C2BA" transform="translate(327,73)"/>
<path d="M0 0 C2.475 0.495 2.475 0.495 5 1 C5.33 2.32 5.66 3.64 6 5 C5.01 5 4.02 5 3 5 C3 8.96 3 12.92 3 17 C2.01 16.34 1.02 15.68 0 15 C-0.22137393 12.37302936 -0.28162025 9.99106036 -0.1875 7.375 C-0.17396484 6.66859375 -0.16042969 5.9621875 -0.14648438 5.234375 C-0.1111104 3.48925872 -0.05730221 1.74453392 0 0 Z " fill="#B7DFDD" transform="translate(91,60)"/>
<path d="M0 0 C0.62003906 0.13277344 1.24007812 0.26554687 1.87890625 0.40234375 C9.91561245 2.00500568 17.82982404 2.58101662 26 3 C26 3.33 26 3.66 26 4 C24.02 4 22.04 4 20 4 C20 4.99 20 5.98 20 7 C19.34 7 18.68 7 18 7 C18 6.34 18 5.68 18 5 C17.3709375 5.03480469 16.741875 5.06960937 16.09375 5.10546875 C9.94071219 5.30006784 5.62490422 4.49995743 0 2 C0 1.34 0 0.68 0 0 Z " fill="#3F426C" transform="translate(53,127)"/>
<path d="M0 0 C0 0.33 0 0.66 0 1 C-2.64 1.33 -5.28 1.66 -8 2 C-7.67 2.66 -7.34 3.32 -7 4 C-11.1196377 5.29243536 -14.66831683 6.26252625 -19 6 C-18.67 4.68 -18.34 3.36 -18 2 C-11.92972642 -0.1583195 -6.40629424 -0.20852314 0 0 Z " fill="#788C90" transform="translate(90,95)"/>
<path d="M0 0 C0 0.33 0 0.66 0 1 C-1.65 1 -3.3 1 -5 1 C-5 1.99 -5 2.98 -5 4 C-4.34 4.33 -3.68 4.66 -3 5 C-11.42857143 7.28571429 -11.42857143 7.28571429 -16 7 C-14.36656877 3.34880077 -13.47614532 2.18866135 -9.6875 0.6875 C-6.34030286 0.0634463 -3.39140385 -0.16543433 0 0 Z " fill="#7E989D" transform="translate(90,86)"/>
<path d="M0 0 C2.475 0.99 2.475 0.99 5 2 C5 2.99 5 3.98 5 5 C5.66 5.66 6.32 6.32 7 7 C6.67 7.66 6.34 8.32 6 9 C3.13275314 8.42655063 2.1385485 8.1385485 0 6 C-0.33 12.6 -0.66 19.2 -1 26 C-1.33 26 -1.66 26 -2 26 C-2 18.74 -2 11.48 -2 4 C-1.01 4 -0.02 4 1 4 C0.67 2.68 0.34 1.36 0 0 Z " fill="#698485" transform="translate(96,61)"/>
<path d="M0 0 C-1 2 -1 2 -2.4375 3.375 C-4.12511905 4.91055875 -4.12511905 4.91055875 -4.75 7.0625 C-6.73595675 10.14073297 -9.57067428 10.23792762 -13 11 C-12.35330586 9.65686601 -11.68096422 8.32608822 -11 7 C-10.566875 6.13375 -10.13375 5.2675 -9.6875 4.375 C-7.07648707 0.70024106 -4.40269148 0 0 0 Z " fill="#717CBC" transform="translate(52,14)"/>
<path d="M0 0 C-0.639375 0.2475 -1.27875 0.495 -1.9375 0.75 C-4.16109949 1.7749381 -4.16109949 1.7749381 -4.5 3.8125 C-4.665 4.534375 -4.83 5.25625 -5 6 C-6.9375 8.75 -6.9375 8.75 -9 11 C-9.66 11 -10.32 11 -11 11 C-11.75 9.375 -11.75 9.375 -12 7 C-10.08223489 3.16446978 -8.80355468 1.36963515 -4.875 -0.4375 C-2 -1 -2 -1 0 0 Z " fill="#6368A4" transform="translate(35,27)"/>
<path d="M0 0 C0.33 0 0.66 0 1 0 C1 3.3 1 6.6 1 10 C1.88042969 9.96519531 2.76085937 9.93039063 3.66796875 9.89453125 C4.82941406 9.86746094 5.99085937 9.84039062 7.1875 9.8125 C8.91033203 9.76029297 8.91033203 9.76029297 10.66796875 9.70703125 C14.27039199 10.02377421 16.09366839 10.91466602 19 13 C16.30410561 14.34794719 14.96922612 13.40931243 12.21875 12.546875 C7.89589691 11.48138304 3.43102473 11.30448271 -1 11 C-2.06511827 6.62780122 -1.66434402 4.20981134 0 0 Z " fill="#587687" transform="translate(72,14)"/>
<path d="M0 0 C0.33 0.66 0.66 1.32 1 2 C3.01669827 3.13350534 3.01669827 3.13350534 5 4 C3.4188708 4.50692692 1.83498617 5.00526443 0.25 5.5 C-0.63171875 5.7784375 -1.5134375 6.056875 -2.421875 6.34375 C-5 7 -5 7 -9 7 C-9 5.68 -9 4.36 -9 3 C-3.375 0 -3.375 0 0 0 Z " fill="#637283" transform="translate(39,90)"/>
<path d="M0 0 C0.99 0.495 0.99 0.495 2 1 C2 1.99 2 2.98 2 4 C2.99 4 3.98 4 5 4 C5 6.64 5 9.28 5 12 C3.35 12 1.7 12 0 12 C0 8.04 0 4.08 0 0 Z " fill="#4D6EB8" transform="translate(214,70)"/>
<path d="M0 0 C1.67542976 0.28604898 3.34385343 0.61781233 5 1 C4 3 4 3 2 5 C2.66 5 3.32 5 4 5 C4 6.32 4 7.64 4 9 C3.01 9.33 2.02 9.66 1 10 C0.67 12.31 0.34 14.62 0 17 C-0.33 17 -0.66 17 -1 17 C-1.02684679 14.35409986 -1.04676357 11.70846904 -1.0625 9.0625 C-1.07087891 8.30775391 -1.07925781 7.55300781 -1.08789062 6.77539062 C-1.09652441 4.85005687 -1.05224333 2.92464419 -1 1 C-0.67 0.67 -0.34 0.34 0 0 Z " fill="#74A9A5" transform="translate(332,65)"/>
<path d="M0 0 C3.96 0 7.92 0 12 0 C12 1.32 12 2.64 12 4 C8.37 4 4.74 4 1 4 C0.67 2.68 0.34 1.36 0 0 Z " fill="#474CAA" transform="translate(163,78)"/>
<path d="M0 0 C0 1.32 0 2.64 0 4 C-0.66 4 -1.32 4 -2 4 C-2 4.66 -2 5.32 -2 6 C-3.76957906 8.3283935 -4.81583516 8.95288806 -7.6875 9.6875 C-8.8321875 9.8421875 -8.8321875 9.8421875 -10 10 C-10 9.01 -10 8.02 -10 7 C-9.01 6.67 -8.02 6.34 -7 6 C-6.67 5.175 -6.34 4.35 -6 3.5 C-5.67 2.675 -5.34 1.85 -5 1 C-2 0 -2 0 0 0 Z " fill="#899FA5" transform="translate(52,43)"/>
<path d="M0 0 C1.32 0 2.64 0 4 0 C4.08090971 1.62418745 4.13914995 3.24951745 4.1875 4.875 C4.22230469 5.77992187 4.25710937 6.68484375 4.29296875 7.6171875 C4.19628906 8.40351562 4.09960938 9.18984375 4 10 C3.01 10.66 2.02 11.32 1 12 C0 11 0 11 -0.09765625 8.49609375 C-0.08605469 7.48675781 -0.07445312 6.47742188 -0.0625 5.4375 C-0.05347656 4.42558594 -0.04445312 3.41367188 -0.03515625 2.37109375 C-0.02355469 1.58863281 -0.01195312 0.80617187 0 0 Z " fill="#4042A9" transform="translate(160,63)"/>
<path d="M0 0 C0.556875 0.37125 1.11375 0.7425 1.6875 1.125 C-0.6225 1.125 -2.9325 1.125 -5.3125 1.125 C-5.6425 2.775 -5.9725 4.425 -6.3125 6.125 C-8.6225 6.125 -10.9325 6.125 -13.3125 6.125 C-13.3125 5.795 -13.3125 5.465 -13.3125 5.125 C-16.2825 4.63 -16.2825 4.63 -19.3125 4.125 C-19.3125 3.795 -19.3125 3.465 -19.3125 3.125 C-18.10013672 2.94324219 -18.10013672 2.94324219 -16.86328125 2.7578125 C-15.79464844 2.59023438 -14.72601563 2.42265625 -13.625 2.25 C-12.56925781 2.08757813 -11.51351562 1.92515625 -10.42578125 1.7578125 C-7.31728909 1.22684358 -7.31728909 1.22684358 -4.5625 0 C-2.3125 -0.875 -2.3125 -0.875 0 0 Z " fill="#7A9896" transform="translate(88.3125,38.875)"/>
<path d="M0 0 C2.05078125 0.03255208 4.1015625 0.06510417 6.15234375 0.09765625 C3.15234375 1.59765625 3.15234375 1.59765625 0.15234375 3.09765625 C-0.31719886 6.14346894 -0.31719886 6.14346894 -0.47265625 9.66015625 C-0.54742187 10.85769531 -0.6221875 12.05523437 -0.69921875 13.2890625 C-0.74820313 14.21589844 -0.7971875 15.14273438 -0.84765625 16.09765625 C-1.50765625 16.09765625 -2.16765625 16.09765625 -2.84765625 16.09765625 C-2.8745072 13.61841824 -2.89442172 11.13946785 -2.91015625 8.66015625 C-2.92272461 7.59958008 -2.92272461 7.59958008 -2.93554688 6.51757812 C-2.94419213 4.71072066 -2.89985636 2.90378022 -2.84765625 1.09765625 C-1.84765625 0.09765625 -1.84765625 0.09765625 0 0 Z " fill="#477E9E" transform="translate(255.84765625,65.90234375)"/>
<path d="M0 0 C0.99 0 1.98 0 3 0 C3.33 2.64 3.66 5.28 4 8 C5.32 8 6.64 8 8 8 C8 8.66 8 9.32 8 10 C2.25 10.125 2.25 10.125 0 9 C-0.44921875 7.1875 -0.44921875 7.1875 -0.6875 5 C-0.77386719 4.278125 -0.86023438 3.55625 -0.94921875 2.8125 C-0.96597656 2.214375 -0.98273438 1.61625 -1 1 C-0.67 0.67 -0.34 0.34 0 0 Z " fill="#5198D1" transform="translate(235,71)"/>
<path d="M0 0 C-1.125 2.5 -1.125 2.5 -3 5 C-6.0625 5.5 -6.0625 5.5 -9 5 C-9.66 4.01 -10.32 3.02 -11 2 C-6.97107804 -0.96244261 -4.82799816 -1.2350693 0 0 Z " fill="#9CDAD3" transform="translate(324,66)"/>
<path d="M0 0 C1.65 0 3.3 0 5 0 C4.67 0.99 4.34 1.98 4 3 C4 2.34 4 1.68 4 1 C3.01 1 2.02 1 1 1 C1.11341491 3.48020497 1.24014686 5.95844969 1.375 8.4375 C1.4059375 9.14455078 1.436875 9.85160156 1.46875 10.58007812 C1.57280629 12.39239188 1.77919892 14.19817988 2 16 C2.66 16.33 3.32 16.66 4 17 C4.33 16.34 4.66 15.68 5 15 C5 16.65 5 18.3 5 20 C3.35 20 1.7 20 0 20 C0 13.4 0 6.8 0 0 Z " fill="#9FE7DF" transform="translate(293,62)"/>
<path d="M0 0 C4.455 0.99 4.455 0.99 9 2 C7.68 2.33 6.36 2.66 5 3 C5 3.66 5 4.32 5 5 C6.32 5.33 7.64 5.66 9 6 C4.06729471 7.6442351 1.45975807 6.18615592 -3 4 C-2.01 2.68 -1.02 1.36 0 0 Z " fill="#6C7E86" transform="translate(65,101)"/>
<path d="M0 0 C1.98 0 3.96 0 6 0 C7 1 7 1 7.09765625 4.37890625 C7.09098369 5.77347077 7.07902532 7.16801743 7.0625 8.5625 C7.05798828 9.27341797 7.05347656 9.98433594 7.04882812 10.71679688 C7.03700864 12.47790013 7.01907263 14.23896036 7 16 C6.67 16 6.34 16 6 16 C5.67 11.71 5.34 7.42 5 3 C3.68 2.67 2.36 2.34 1 2 C1 5.63 1 9.26 1 13 C0.67 13 0.34 13 0 13 C0 8.71 0 4.42 0 0 Z " fill="#32386A" transform="translate(159,61)"/>
<path d="M0 0 C0 -0.66 0 -1.32 0 -2 C1.65 -1.67 3.3 -1.34 5 -1 C1.7188698 1.18742014 -0.33084356 1.54442806 -4.1875 2.125 C-5.27417969 2.29257812 -6.36085937 2.46015625 -7.48046875 2.6328125 C-8.31191406 2.75398438 -9.14335938 2.87515625 -10 3 C-9.625 1.0625 -9.625 1.0625 -9 -1 C-5.79937313 -2.60031344 -3.27728194 -1.03173691 0 0 Z " fill="#747CBA" transform="translate(58,26)"/>
<path d="M0 0 C4.29 0 8.58 0 13 0 C12.01 0.33 11.02 0.66 10 1 C10 1.66 10 2.32 10 3 C5.545 3.495 5.545 3.495 1 4 C0.67 2.68 0.34 1.36 0 0 Z " fill="#8CA2AB" transform="translate(39,89)"/>
<path d="M0 0 C0 4.26861765 -1.65525557 6.48288335 -4 10 C-4.66 10 -5.32 10 -6 10 C-6.103125 10.61875 -6.20625 11.2375 -6.3125 11.875 C-7 14 -7 14 -10 16 C-8.70931268 11.36711185 -6.9561156 8.30246056 -3.875 4.625 C-3.15054687 3.75101563 -2.42609375 2.87703125 -1.6796875 1.9765625 C-1.12539063 1.32429688 -0.57109375 0.67203125 0 0 Z " fill="#51527E" transform="translate(24,31)"/>
<path d="M0 0 C0.99 0.33 1.98 0.66 3 1 C2 2 1 3 0 4 C-0.556875 4.680625 -1.11375 5.36125 -1.6875 6.0625 C-4.94123451 8.78860189 -7.8582457 9.17164914 -12 10 C-10.71034824 8.62437146 -9.37310707 7.29233607 -8 6 C-7.34 6 -6.68 6 -6 6 C-6 5.34 -6 4.68 -6 4 C-3 2 -3 2 0 2 C0 1.34 0 0.68 0 0 Z " fill="#575D8A" transform="translate(40,18)"/>
<path d="M0 0 C1.96840656 2.95260984 2.63278836 5.3135211 3.42578125 8.7265625 C4.39306508 12.55621685 5.70511754 16.27073853 7 20 C6.01 20 5.02 20 4 20 C3.67 17.69 3.34 15.38 3 13 C2.34 13 1.68 13 1 13 C0.67 8.71 0.34 4.42 0 0 Z " fill="#3D3C6E" transform="translate(20,84)"/>
<path d="M0 0 C1 1 1 1 1.09765625 3.94140625 C1.08605469 5.13636719 1.07445312 6.33132812 1.0625 7.5625 C1.05347656 8.76003906 1.04445312 9.95757812 1.03515625 11.19140625 C1.02355469 12.11824219 1.01195312 13.04507813 1 14 C0.67 14 0.34 14 0 14 C-0.33 10.37 -0.66 6.74 -1 3 C-1.99 3.33 -2.98 3.66 -4 4 C-4 3.34 -4 2.68 -4 2 C-4.99 2 -5.98 2 -7 2 C-7 1.34 -7 0.68 -7 0 C-3.86350275 -1.04549908 -3.0051095 -1.00170317 0 0 Z " fill="#4E7BBA" transform="translate(230,68)"/>
<path d="M0 0 C0.66 0.33 1.32 0.66 2 1 C0.68 2.65 -0.64 4.3 -2 6 C-1.01 6.33 -0.02 6.66 1 7 C-2 9 -2 9 -4.6875 8.625 C-5.450625 8.41875 -6.21375 8.2125 -7 8 C-6.67 9.32 -6.34 10.64 -6 12 C-6.66 12 -7.32 12 -8 12 C-8.375 9.8125 -8.375 9.8125 -8 7 C-6.17130326 4.91167347 -4.30947441 3.61663209 -2 2 C-1.34 2 -0.68 2 0 2 C0 1.34 0 0.68 0 0 Z " fill="#657A82" transform="translate(44,46)"/>
<path d="M0 0 C2.31 0 4.62 0 7 0 C7 0.66 7 1.32 7 2 C7.99 2 8.98 2 10 2 C10 2.66 10 3.32 10 4 C7 6 7 6 4 6 C4 5.34 4 4.68 4 4 C2.68 3.34 1.36 2.68 0 2 C0 1.34 0 0.68 0 0 Z " fill="#B3D5D4" transform="translate(57,40)"/>
<path d="M0 0 C1.134375 0.020625 2.26875 0.04125 3.4375 0.0625 C3.4375 0.3925 3.4375 0.7225 3.4375 1.0625 C1.7875 1.3925 0.1375 1.7225 -1.5625 2.0625 C2.0675 2.3925 5.6975 2.7225 9.4375 3.0625 C9.4375 3.3925 9.4375 3.7225 9.4375 4.0625 C4.8175 4.3925 0.1975 4.7225 -4.5625 5.0625 C-4.5625 0.08004386 -4.5625 0.08004386 0 0 Z " fill="#5F6F77" transform="translate(47.5625,97.9375)"/>
<path d="M0 0 C1.32 0.33 2.64 0.66 4 1 C4.33 3.64 4.66 6.28 5 9 C3.35 9 1.7 9 0 9 C0 6.03 0 3.06 0 0 Z " fill="#A7E8DF" transform="translate(332,73)"/>
<path d="M0 0 C0 0.99 0 1.98 0 3 C-2.1464753 2.88655624 -4.29220592 2.75893655 -6.4375 2.625 C-7.63246094 2.55539063 -8.82742187 2.48578125 -10.05859375 2.4140625 C-11.02925781 2.27742188 -11.99992187 2.14078125 -13 2 C-13.33 1.34 -13.66 0.68 -14 0 C-8.97703996 -1.13016601 -5.02125926 -0.77916092 0 0 Z " fill="#94A7B2" transform="translate(59,99)"/>
<path d="M0 0 C-0.33 1.32 -0.66 2.64 -1 4 C-2.4370809 4.05422947 -3.87475462 4.09289723 -5.3125 4.125 C-6.11300781 4.14820312 -6.91351563 4.17140625 -7.73828125 4.1953125 C-10 4 -10 4 -13 2 C-10.69 2 -8.38 2 -6 2 C-6 1.34 -6 0.68 -6 0 C-3.50907189 -1.24546405 -2.58919267 -0.7767578 0 0 Z " fill="#869EA1" transform="translate(117,93)"/>
<path d="M0 0 C1.98 0 3.96 0 6 0 C5.2884375 0.5878125 5.2884375 0.5878125 4.5625 1.1875 C2.64820367 3.40808374 2.38733012 5.13375709 2 8 C0.68 8 -0.64 8 -2 8 C-2 6.02 -2 4.04 -2 2 C-1.34 2 -0.68 2 0 2 C0 1.34 0 0.68 0 0 Z " fill="#A8E7E0" transform="translate(316,73)"/>
<path d="M0 0 C3.96 0.99 3.96 0.99 8 2 C8 2.33 8 2.66 8 3 C6.02 3 4.04 3 2 3 C1.7834375 4.423125 1.7834375 4.423125 1.5625 5.875 C1 9 1 9 0 11 C-0.66 11 -1.32 11 -2 11 C-2.25 5.375 -2.25 5.375 0 2 C0 1.34 0 0.68 0 0 Z " fill="#4D7879" transform="translate(314,70)"/>
<path d="M0 0 C-0.33 0.99 -0.66 1.98 -1 3 C-3.64 3 -6.28 3 -9 3 C-9.33 2.01 -9.66 1.02 -10 0 C-6.42355152 -1.2380014 -3.66305234 -0.74926071 0 0 Z " fill="#92C0C8" transform="translate(73,91)"/>
<path d="M0 0 C0.99 0.66 1.98 1.32 3 2 C3 2.66 3 3.32 3 4 C2.34 4.66 1.68 5.32 1 6 C1 7.32 1 8.64 1 10 C0.34 9.67 -0.32 9.34 -1 9 C-0.67 8.34 -0.34 7.68 0 7 C-0.66 7 -1.32 7 -2 7 C-2.33 5.35 -2.66 3.7 -3 2 C-2.01 1.34 -1.02 0.68 0 0 Z " fill="#667D7F" transform="translate(76,78)"/>
<path d="M0 0 C3.465 1.485 3.465 1.485 7 3 C6.67 3.66 6.34 4.32 6 5 C5.34 4.67 4.68 4.34 4 4 C3.67 5.65 3.34 7.3 3 9 C2.34 8.01 1.68 7.02 1 6 C0.01 5.67 -0.98 5.34 -2 5 C-1.34 3.35 -0.68 1.7 0 0 Z " fill="#7ABBB4" transform="translate(296,73)"/>
<path d="M0 0 C1.67542976 0.28604898 3.34385343 0.61781233 5 1 C4.38416344 2.98203709 3.75706166 4.9605772 3.125 6.9375 C2.77695312 8.03964844 2.42890625 9.14179687 2.0703125 10.27734375 C1 13 1 13 -1 14 C-0.67 10.7 -0.34 7.4 0 4 C0.66 4 1.32 4 2 4 C2 3.34 2 2.68 2 2 C1.01 1.67 0.02 1.34 -1 1 C-0.67 0.67 -0.34 0.34 0 0 Z " fill="#669E9C" transform="translate(279,65)"/>
<path d="M0 0 C0.33 0.66 0.66 1.32 1 2 C1.99 2 2.98 2 4 2 C4.33 1.34 4.66 0.68 5 0 C5.33 1.98 5.66 3.96 6 6 C2.7 6 -0.6 6 -4 6 C-4.33 5.34 -4.66 4.68 -5 4 C-3.35 4 -1.7 4 0 4 C0 2.68 0 1.36 0 0 Z " fill="#3B4B8D" transform="translate(181,76)"/>
<path d="M0 0 C0 0.66 0 1.32 0 2 C-0.99 2 -1.98 2 -3 2 C-3 2.99 -3 3.98 -3 5 C-1.35 4.67 0.3 4.34 2 4 C1 6 1 6 -2 8 C-3.32 8 -4.64 8 -6 8 C-5.42415568 5.61435923 -4.77772405 3.33317216 -4 1 C-2 0 -2 0 0 0 Z " fill="#81B7B0" transform="translate(350,66)"/>
<path d="M0 0 C0.99 0.33 1.98 0.66 3 1 C3 3.64 3 6.28 3 9 C2.01 9.33 1.02 9.66 0 10 C0 6.7 0 3.4 0 0 Z " fill="#4558BE" transform="translate(196,68)"/>
<path d="M0 0 C1.98 0 3.96 0 6 0 C6 1.65 6 3.3 6 5 C3.03 4.505 3.03 4.505 0 4 C0 2.68 0 1.36 0 0 Z " fill="#93C2BD" transform="translate(362,59)"/>
<path d="M0 0 C1.65 1.65 3.3 3.3 5 5 C3.68 5 2.36 5 1 5 C0.67 5.66 0.34 6.32 0 7 C-3 3.25 -3 3.25 -3 1 C-2.01 0.67 -1.02 0.34 0 0 Z " fill="#88A9A8" transform="translate(64,45)"/>
<path d="M0 0 C2.64 0 5.28 0 8 0 C8.33 1.32 8.66 2.64 9 4 C6.36 3.67 3.72 3.34 1 3 C0.67 2.01 0.34 1.02 0 0 Z " fill="#A7CED0" transform="translate(103,92)"/>
<path d="M0 0 C1.32 0.33 2.64 0.66 4 1 C4 1.66 4 2.32 4 3 C4.66 3 5.32 3 6 3 C5.67 3.66 5.34 4.32 5 5 C2.36 5 -0.28 5 -3 5 C-3 4.01 -3 3.02 -3 2 C-2.01 2 -1.02 2 0 2 C0 1.34 0 0.68 0 0 Z " fill="#A4EBE1" transform="translate(350,66)"/>
<path d="M0 0 C6.75 -0.125 6.75 -0.125 9 1 C8.67 1.99 8.34 2.98 8 4 C2.25 3.125 2.25 3.125 0 2 C0 1.34 0 0.68 0 0 Z " fill="#C5E4E3" transform="translate(83,40)"/>
<path d="M0 0 C-4 2 -4 2 -8 4 C-8 3.34 -8 2.68 -8 2 C-10.97 2 -13.94 2 -17 2 C-17 1.67 -17 1.34 -17 1 C-11.29014022 0.25983299 -5.75813575 -0.10469338 0 0 Z " fill="#7487A8" transform="translate(77,10)"/>
<path d="M0 0 C0.66 0 1.32 0 2 0 C2 2.97 2 5.94 2 9 C0.35 9 -1.3 9 -3 9 C-2.01 6.03 -1.02 3.06 0 0 Z " fill="#8DC7C1" transform="translate(327,73)"/>
<path d="M0 0 C0.33 0 0.66 0 1 0 C1 2.64 1 5.28 1 8 C2.32 8 3.64 8 5 8 C5 9.32 5 10.64 5 12 C3.35 12 1.7 12 0 12 C0 8.04 0 4.08 0 0 Z " fill="#62B2D5" transform="translate(255,70)"/>
<path d="M0 0 C2.375 -0.1875 2.375 -0.1875 5 0 C7.35119399 3.52679099 7.21443452 5.02879485 7.125 9.1875 C7.10695312 10.27417969 7.08890625 11.36085938 7.0703125 12.48046875 C7.03550781 13.72763672 7.03550781 13.72763672 7 15 C6.67 15 6.34 15 6 15 C5.93941406 14.40832031 5.87882813 13.81664063 5.81640625 13.20703125 C5.37987629 9.09021792 4.91328654 5.04455467 4 1 C2.68 0.67 1.36 0.34 0 0 Z " fill="#424F8F" transform="translate(185,67)"/>
<path d="M0 0 C1.4540625 0.0309375 1.4540625 0.0309375 2.9375 0.0625 C2.9375 1.0525 2.9375 2.0425 2.9375 3.0625 C0.9375 4.75 0.9375 4.75 -1.0625 6.0625 C-1.3925 5.0725 -1.7225 4.0825 -2.0625 3.0625 C-2.7225 2.4025 -3.3825 1.7425 -4.0625 1.0625 C-3.0625 0.0625 -3.0625 0.0625 0 0 Z " fill="#6C938F" transform="translate(309.0625,60.9375)"/>
<path d="M0 0 C2.475 0.495 2.475 0.495 5 1 C5 1.66 5 2.32 5 3 C5.99 3 6.98 3 8 3 C8.33 4.32 8.66 5.64 9 7 C5.07353523 5.69117841 2.72225079 4.1255472 0 1 C0 0.67 0 0.34 0 0 Z " fill="#413875" transform="translate(32,128)"/>
<path d="M0 0 C1.98 0.66 3.96 1.32 6 2 C5.01 2.33 4.02 2.66 3 3 C3.33 3.99 3.66 4.98 4 6 C2.02 5.34 0.04 4.68 -2 4 C-1.34 2.68 -0.68 1.36 0 0 Z " fill="#8DA9A9" transform="translate(100,89)"/>
<path d="M0 0 C1.9375 0.3125 1.9375 0.3125 4 1 C4.33 1.99 4.66 2.98 5 4 C3.02 4.33 1.04 4.66 -1 5 C-0.67 3.35 -0.34 1.7 0 0 Z " fill="#465CB1" transform="translate(198,77)"/>
<path d="M0 0 C0.99 0 1.98 0 3 0 C3.33 1.98 3.66 3.96 4 6 C3.01 6.66 2.02 7.32 1 8 C1 6.68 1 5.36 1 4 C0.34 4 -0.32 4 -1 4 C-0.67 2.68 -0.34 1.36 0 0 Z " fill="#A3ECE2" transform="translate(322,67)"/>
<path d="M0 0 C1 3 1 3 1 5 C0.34 5 -0.32 5 -1 5 C-1.66 5.66 -2.32 6.32 -3 7 C-3.66 6.67 -4.32 6.34 -5 6 C-5 4.68 -5 3.36 -5 2 C-3.35 1.34 -1.7 0.68 0 0 Z " fill="#95D8D0" transform="translate(126,50)"/>
<path d="M0 0 C0.66 0 1.32 0 2 0 C2.33 0.66 2.66 1.32 3 2 C3.99 2.66 4.98 3.32 6 4 C3.36 4.33 0.72 4.66 -2 5 C-1.125 1.125 -1.125 1.125 0 0 Z " fill="#748688" transform="translate(73,96)"/>
<path d="M0 0 C1.65 0 3.3 0 5 0 C5 0.66 5 1.32 5 2 C3.35 2.33 1.7 2.66 0 3 C0 3.66 0 4.32 0 5 C2.64 5 5.28 5 8 5 C8 5.33 8 5.66 8 6 C5.03 6 2.06 6 -1 6 C-0.67 4.02 -0.34 2.04 0 0 Z " fill="#619396" transform="translate(266,82)"/>
<path d="M0 0 C4.875 1.75 4.875 1.75 6 4 C5.01 4.33 4.02 4.66 3 5 C2.67 5.66 2.34 6.32 2 7 C1.01 6.34 0.02 5.68 -1 5 C-0.67 3.35 -0.34 1.7 0 0 Z " fill="#7DA1A0" transform="translate(97,44)"/>
<path d="M0 0 C-1.39244639 2.78489278 -3.55991988 4.12301529 -6 6 C-6.99 5.01 -7.98 4.02 -9 3 C-3.375 0 -3.375 0 0 0 Z " fill="#656D97" transform="translate(52,14)"/>
<path d="M0 0 C2.5 0.3125 2.5 0.3125 5 1 C5.33 1.66 5.66 2.32 6 3 C5.01 3 4.02 3 3 3 C2.67 3.66 2.34 4.32 2 5 C1.34 4.34 0.68 3.68 0 3 C-0.99 3.66 -1.98 4.32 -3 5 C-1.125 1.125 -1.125 1.125 0 0 Z " fill="#7DB0B5" transform="translate(116,120)"/>
<path d="M0 0 C1.11375 0.3403125 1.11375 0.3403125 2.25 0.6875 C1.59 2.0075 0.93 3.3275 0.25 4.6875 C-2.06 4.0275 -4.37 3.3675 -6.75 2.6875 C-4.29511132 0.41445492 -3.41240272 -0.38777304 0 0 Z " fill="#717D8C" transform="translate(63.75,108.3125)"/>
<path d="M0 0 C1.65 0.33 3.3 0.66 5 1 C4.34 2.32 3.68 3.64 3 5 C1.68 4.67 0.36 4.34 -1 4 C-0.67 2.68 -0.34 1.36 0 0 Z " fill="#748691" transform="translate(46,106)"/>
<path d="M0 0 C0.33 0.99 0.66 1.98 1 3 C-0.4375 5.6875 -0.4375 5.6875 -2 8 C-3.32 7.01 -4.64 6.02 -6 5 C-6.33 5.66 -6.66 6.32 -7 7 C-6.67 5.68 -6.34 4.36 -6 3 C-4.02 3.495 -4.02 3.495 -2 4 C-2 3.34 -2 2.68 -2 2 C-1.34 2 -0.68 2 0 2 C0 1.34 0 0.68 0 0 Z " fill="#699396" transform="translate(135,101)"/>
<path d="M0 0 C2.64 0 5.28 0 8 0 C8 0.99 8 1.98 8 3 C2.25 3.125 2.25 3.125 0 2 C0 1.34 0 0.68 0 0 Z " fill="#99B4BA" transform="translate(63,86)"/>
<path d="M0 0 C0.99 0.66 1.98 1.32 3 2 C1.35 4.64 -0.3 7.28 -2 10 C-3 6 -3 6 -2 3 C-1.34 3 -0.68 3 0 3 C0 2.01 0 1.02 0 0 Z " fill="#719D9B" transform="translate(128,110)"/>
<path d="M0 0 C2 3 2 3 1.3125 6.5625 C0 10 0 10 -3 12 C-2.01 8.04 -1.02 4.08 0 0 Z " fill="#5B8585" transform="translate(124,88)"/>
<path d="M0 0 C2.31 0 4.62 0 7 0 C7 1.32 7 2.64 7 4 C5.35 4 3.7 4 2 4 C2.33 3.34 2.66 2.68 3 2 C2.01 1.34 1.02 0.68 0 0 Z " fill="#748A8D" transform="translate(81,76)"/>
<path d="M0 0 C1.3921875 0.3403125 1.3921875 0.3403125 2.8125 0.6875 C2.1525 1.3475 1.4925 2.0075 0.8125 2.6875 C-0.1775 2.6875 -1.1675 2.6875 -2.1875 2.6875 C-2.1875 3.3475 -2.1875 4.0075 -2.1875 4.6875 C-3.5075 4.0275 -4.8275 3.3675 -6.1875 2.6875 C-4.14987265 -0.14253799 -3.59070275 -0.35202968 0 0 Z " fill="#4B6AA9" transform="translate(225.1875,65.3125)"/>
<path d="M0 0 C0.66 0 1.32 0 2 0 C2 0.66 2 1.32 2 2 C3.32 2.33 4.64 2.66 6 3 C5.67 3.99 5.34 4.98 5 6 C3.68 5.67 2.36 5.34 1 5 C0.67 3.35 0.34 1.7 0 0 Z " fill="#899BA4" transform="translate(42,63)"/>
<path d="M0 0 C1.125 3.75 1.125 3.75 0 6 C-1.32 5.67 -2.64 5.34 -4 5 C-2.25 1.125 -2.25 1.125 0 0 Z M-6 5 C-4 6 -4 6 -4 6 Z " fill="#AAD1CF" transform="translate(104,61)"/>
<path d="M0 0 C0.66 0 1.32 0 2 0 C2.33 0.99 2.66 1.98 3 3 C2.67 3.66 2.34 4.32 2 5 C-0.5625 5.625 -0.5625 5.625 -3 6 C-3 5.01 -3 4.02 -3 3 C-2.01 2.67 -1.02 2.34 0 2 C0 1.34 0 0.68 0 0 Z " fill="#8197A1" transform="translate(45,47)"/>
<path d="M0 0 C0.99 0.33 1.98 0.66 3 1 C1.35 3.64 -0.3 6.28 -2 9 C-3 5 -3 5 -1.5625 2.25 C-1.046875 1.5075 -0.53125 0.765 0 0 Z " fill="#4B5080" transform="translate(32,40)"/>
<path d="M0 0 C0.66 1.32 1.32 2.64 2 4 C2.99 3.67 3.98 3.34 5 3 C4.67 4.65 4.34 6.3 4 8 C2.68 8 1.36 8 0 8 C0 5.36 0 2.72 0 0 Z " fill="#8CCACA" transform="translate(73,15)"/>
<path d="M0 0 C0.33 1.32 0.66 2.64 1 4 C-1.375 4.1875 -1.375 4.1875 -4 4 C-4.66 3.01 -5.32 2.02 -6 1 C-4 0 -4 0 0 0 Z " fill="#8D9DA7" transform="translate(69,110)"/>
<path d="M0 0 C-0.33 0.99 -0.66 1.98 -1 3 C-2.98 3 -4.96 3 -7 3 C-7.33 2.34 -7.66 1.68 -8 1 C-5.29120665 -0.35439668 -2.99066732 -0.06501451 0 0 Z " fill="#9DB9BB" transform="translate(88,103)"/>
<path d="M0 0 C0.99 0 1.98 0 3 0 C2.34 2.97 1.68 5.94 1 9 C0.34 9 -0.32 9 -1 9 C-1 8.01 -1 7.02 -1 6 C-0.34 6 0.32 6 1 6 C1 5.01 1 4.02 1 3 C0.34 3 -0.32 3 -1 3 C-0.67 2.01 -0.34 1.02 0 0 Z " fill="#73A19F" transform="translate(136,91)"/>
<path d="M0 0 C0.66 0.33 1.32 0.66 2 1 C2 1.99 2 2.98 2 4 C-0.31 4 -2.62 4 -5 4 C-5 3.34 -5 2.68 -5 2 C-2.625 0.9375 -2.625 0.9375 0 0 Z " fill="#8FDFDE" transform="translate(271,83)"/>
<path d="M0 0 C1.65 0 3.3 0 5 0 C5 3.96 5 7.92 5 12 C4.67 12 4.34 12 4 12 C3.67 9.03 3.34 6.06 3 3 C2.01 2.67 1.02 2.34 0 2 C0 1.34 0 0.68 0 0 Z " fill="#3E6090" transform="translate(221,70)"/>
<path d="M0 0 C0 0.99 0 1.98 0 3 C-1.65 3 -3.3 3 -5 3 C-5.33 2.01 -5.66 1.02 -6 0 C-3 -1 -3 -1 0 0 Z " fill="#87A2A6" transform="translate(84,110)"/>
<path d="M0 0 C5.75 0.875 5.75 0.875 8 2 C8 3.32 8 4.64 8 6 C7.34 6 6.68 6 6 6 C6 5.34 6 4.68 6 4 C5.34 4 4.68 4 4 4 C3.67 3.34 3.34 2.68 3 2 C2.01 1.34 1.02 0.68 0 0 Z " fill="#6F9D97" transform="translate(350,65)"/>
<path d="M0 0 C-1.485 2.475 -1.485 2.475 -3 5 C-3.66 4.67 -4.32 4.34 -5 4 C-5 3.34 -5 2.68 -5 2 C-5.99 1.34 -6.98 0.68 -8 0 C-5.13822943 -1.43088528 -3.06624227 -0.59991697 0 0 Z " fill="#7CACA7" transform="translate(324,66)"/>
<path d="M0 0 C1.65 0.33 3.3 0.66 5 1 C5 1.99 5 2.98 5 4 C3.02 4 1.04 4 -1 4 C-0.67 2.68 -0.34 1.36 0 0 Z " fill="#8EA1A9" transform="translate(52,59)"/>
<path d="M0 0 C0.66 0.33 1.32 0.66 2 1 C0.8125 3.4375 0.8125 3.4375 -1 6 C-3.6875 6.8125 -3.6875 6.8125 -6 7 C-5.34 6.01 -4.68 5.02 -4 4 C-3.34 4 -2.68 4 -2 4 C-2 3.34 -2 2.68 -2 2 C-1.34 2 -0.68 2 0 2 C0 1.34 0 0.68 0 0 Z " fill="#638588" transform="translate(111,113)"/>
<path d="M0 0 C0.66 0.99 1.32 1.98 2 3 C0.35 5.31 -1.3 7.62 -3 10 C-3.66 9.67 -4.32 9.34 -5 9 C-3.35 6.03 -1.7 3.06 0 0 Z " fill="#5D7F80" transform="translate(120,100)"/>
<path d="M0 0 C1.65 0 3.3 0 5 0 C5.33 0.99 5.66 1.98 6 3 C3.69 3 1.38 3 -1 3 C-0.67 2.01 -0.34 1.02 0 0 Z " fill="#476D89" transform="translate(246,59)"/>
<path d="M0 0 C2.475 0.99 2.475 0.99 5 2 C4.67 2.99 4.34 3.98 4 5 C2.0625 4.6875 2.0625 4.6875 0 4 C-0.33 3.01 -0.66 2.02 -1 1 C-0.67 0.67 -0.34 0.34 0 0 Z " fill="#B2D7D3" transform="translate(100,47)"/>
<path d="M0 0 C1.5 1.1875 1.5 1.1875 3 3 C3.1875 5.6875 3.1875 5.6875 3 8 C0.9375 6.25 0.9375 6.25 -1 4 C-0.75 1.75 -0.75 1.75 0 0 Z " fill="#7AADA8" transform="translate(114,41)"/>
<path d="M0 0 C1.65 0.33 3.3 0.66 5 1 C5.33 2.32 5.66 3.64 6 5 C3.69 4.01 1.38 3.02 -1 2 C-0.67 1.34 -0.34 0.68 0 0 Z " fill="#9DC8C4" transform="translate(105,20)"/>
<path d="M0 0 C7.50769231 -0.36923077 7.50769231 -0.36923077 10 1.5 C10.495 2.2425 10.495 2.2425 11 3 C7.31733897 2.40049704 3.65456815 1.75241109 0 1 C0 0.67 0 0.34 0 0 Z " fill="#2F295B" transform="translate(51,141)"/>
<path d="M0 0 C0.33 0.66 0.66 1.32 1 2 C0.67 2.66 0.34 3.32 0 4 C-1.65 4 -3.3 4 -5 4 C-5 3.01 -5 2.02 -5 1 C-3.35 0.67 -1.7 0.34 0 0 Z " fill="#A7CACB" transform="translate(90,86)"/>
<path d="M0 0 C0.99 0 1.98 0 3 0 C3.33 1.98 3.66 3.96 4 6 C2.68 5.67 1.36 5.34 0 5 C0 3.35 0 1.7 0 0 Z " fill="#9AE5DA" transform="translate(344,76)"/>
<path d="M0 0 C0.99 0 1.98 0 3 0 C3 2.64 3 5.28 3 8 C2.34 7.67 1.68 7.34 1 7 C0.59270772 4.67843403 0.25561323 2.3431213 0 0 Z " fill="#78D5E4" transform="translate(268,68)"/>
<path d="M0 0 C6.4 -0.36923077 6.4 -0.36923077 9.4375 1.5 C9.953125 1.995 10.46875 2.49 11 3 C9.68 3.33 8.36 3.66 7 4 C6.67 3.01 6.34 2.02 6 1 C4.02 1 2.04 1 0 1 C0 0.67 0 0.34 0 0 Z " fill="#6D8A87" transform="translate(70,50)"/>
<path d="M0 0 C1.65 0.33 3.3 0.66 5 1 C1.81237635 3.12508244 -0.26512223 3.5020163 -4 4 C-4.33 3.01 -4.66 2.02 -5 1 C-2.525 1.495 -2.525 1.495 0 2 C0 1.34 0 0.68 0 0 Z " fill="#5C628B" transform="translate(58,24)"/>
<path d="" fill="#000000" transform="translate(0,0)"/>
<path d="" fill="#000000" transform="translate(0,0)"/>
<path d="" fill="#000000" transform="translate(0,0)"/>
<path d="" fill="#000000" transform="translate(0,0)"/>
<path d="" fill="#000000" transform="translate(0,0)"/>
<path d="" fill="#000000" transform="translate(0,0)"/>
<path d="" fill="#000000" transform="translate(0,0)"/>
<path d="" fill="#000000" transform="translate(0,0)"/>
<path d="" fill="#000000" transform="translate(0,0)"/>
<path d="" fill="#000000" transform="translate(0,0)"/>
<path d="" fill="#000000" transform="translate(0,0)"/>
<path d="" fill="#000000" transform="translate(0,0)"/>
<path d="" fill="#000000" transform="translate(0,0)"/>
<path d="" fill="#000000" transform="translate(0,0)"/>
<path d="" fill="#000000" transform="translate(0,0)"/>
<path d="" fill="#000000" transform="translate(0,0)"/>
</svg>
